<?xml version="1.0" encoding="utf-8"?>
<!-- Generator: Adobe Illustrator 24.0.2, SVG Export Plug-In . SVG Version: 6.00 Build 0)  -->
<svg version="1.1" id="Layer_1" xmlns="http://www.w3.org/2000/svg" xmlns:xlink="http://www.w3.org/1999/xlink" x="0px" y="0px"
	 viewBox="0 0 4000 4000" style="enable-background:new 0 0 4000 4000;" xml:space="preserve">
<style type="text/css">
	.st0{fill:#FFD369;}
	.st1{fill:#FFEDA3;}
	.st2{opacity:0.5;}
	.st3{fill:#FFFFFF;}
	.st4{opacity:0.25;}
	.st5{fill:#864000;}
	.st6{fill:#FCA2F3;}
</style>
<g>
	<g>
		<g>
			<g>
				<g>
					<g>
						<rect class="st0" width="4000" height="4000"/>
					</g>
				</g>
			</g>
		</g>
	</g>
</g>
<g>
	<path class="st1" d="M1550.11,2753.4c-72.78-7.85-204.56-33.48-325.57-130.53c-199.9-160.32-233.19-405.51-234.19-544.74
		c-0.41-57.01,47.64-102.41,104.55-98.97c0.68,0.04,1.35,0.08,2.03,0.12c53.23,3.22,94.43,48.1,92.8,101.4
		c-5.15,168.21,62.09,300.41,144.86,398.34c28.65,33.9,78.86,74.9,172.52,97.03c1.23,21.22,3.93,45.04,9.1,70.8
		C1524.72,2689.27,1537.54,2725.07,1550.11,2753.4z"/>
	<path d="M1578.42,2774.06l-30.18-3.26c-88.14-9.51-217.75-40.53-334.64-134.28c-90.8-72.82-157.18-169.83-197.31-288.32
		c-35.04-103.47-42.96-203.9-43.44-269.94c-0.23-32.42,12.6-62.57,36.15-84.9c23.26-22.06,54.94-33.6,86.95-31.66l2.03,0.12
		c30.31,1.83,58.31,15.17,78.82,37.56c20.54,22.42,31.35,51.49,30.42,81.84c-4.32,140.87,43.03,270.91,140.73,386.51
		c36.96,43.73,91.86,74.44,163.17,91.29l12.69,3l0.75,13.02c1.32,22.91,4.28,45.91,8.79,68.36c7.07,35.24,18.09,69.86,32.75,102.9
		L1578.42,2774.06z M1088.78,1996.48c-20.82,0-40.43,7.81-55.69,22.28c-16.44,15.59-25.4,36.63-25.24,59.25
		c0.95,130.97,31.79,374.13,227.64,531.21c97.94,78.55,205.65,110.46,287.02,122.94c-10.02-26.65-17.89-54.08-23.46-81.86
		c-3.98-19.84-6.83-40.09-8.51-60.34c-72.75-19.23-129.66-52.71-169.31-99.63c-46.94-55.54-83.37-115.29-108.28-177.61
		c-29.48-73.73-43.17-151.97-40.7-232.56c1.35-44.09-32.19-80.72-76.37-83.39l-2.03-0.12
		C1092.15,1996.54,1090.46,1996.48,1088.78,1996.48z"/>
</g>
<g class="st2">
	<path class="st3" d="M1153.69,2180.63c8.99,63.89,46.35,270.62,218.43,384.53c30.68,20.31,61.85,35.16,92,46
		c-4.88-17.17-9.76-34.34-14.64-51.51c-36.24-18.84-92.38-54.19-142.05-116.28c-30.02-37.52-49.18-74.19-61.5-103.3
		c-24.05-50.25-36.01-94.38-42.39-126.21c-11.03-55-16.54-82.5-11.45-114.06c1.9-11.79,5.66-27.93,0.23-48
		c-1.52-5.6-8.93-31.18-30.77-47.15c-37.22-27.21-94.01-10.26-93.96-9.45c0.02,0.35,21.96-8.82,42.99,1.21
		c26.57,12.66,34.5,46.64,36.73,56.18c4.68,20.05,0.98,28.81,0.72,59C1147.87,2129.15,1148.89,2152.65,1153.69,2180.63z"/>
</g>
<g>
	<path d="M1578.42,2774.06l-30.18-3.26c-88.14-9.51-217.75-40.53-334.64-134.28c-90.8-72.82-157.18-169.83-197.31-288.32
		c-35.04-103.47-42.96-203.9-43.44-269.94c-0.23-32.42,12.6-62.57,36.15-84.9c23.26-22.06,54.94-33.6,86.95-31.66l2.03,0.12
		c30.31,1.83,58.31,15.17,78.82,37.56c20.54,22.42,31.35,51.49,30.42,81.84c-4.32,140.87,43.03,270.91,140.73,386.51
		c36.96,43.73,91.86,74.44,163.17,91.29l12.69,3l0.75,13.02c1.32,22.91,4.28,45.91,8.79,68.36c7.07,35.24,18.09,69.86,32.75,102.9
		L1578.42,2774.06z M1088.78,1996.48c-20.82,0-40.43,7.81-55.69,22.28c-16.44,15.59-25.4,36.63-25.24,59.25
		c0.95,130.97,31.79,374.13,227.64,531.21c97.94,78.55,205.65,110.46,287.02,122.94c-10.02-26.65-17.89-54.08-23.46-81.86
		c-3.98-19.84-6.83-40.09-8.51-60.34c-72.75-19.23-129.66-52.71-169.31-99.63c-46.94-55.54-83.37-115.29-108.28-177.61
		c-29.48-73.73-43.17-151.97-40.7-232.56c1.35-44.09-32.19-80.72-76.37-83.39l-2.03-0.12
		C1092.15,1996.54,1090.46,1996.48,1088.78,1996.48z"/>
</g>
<g class="st4">
	<path d="M1039.11,2360.25c21.01,54.5,87.81,206.17,253.05,307.25c102.1,62.46,200.22,80.19,257.95,85.9l-19.44-59.28
		c-148.71-29.67-249.88-90.45-319.42-162.8c0,0-155.82-155.33-165.99-421.92c-2.55-66.94,17.56-89.27,28.85-98.23
		c19.55-15.52,44.32-16.09,59-15c-11.07-3.22-78.72-21.93-117.66,14.49c-18.02,16.85-27.28,43.07-23.43,116.96
		C994.86,2181.94,1004.82,2262.8,1039.11,2360.25z"/>
</g>
<g>
	<path class="st1" d="M2027.18,2991.55c-12,15.87-27.93,39.8-41.46,71.39c-10.7,25-25.5,60.55-25.51,108.44
		c-0.01,20.12,0.46,59.29,24.05,97.74c1.12,1.83,2,3.17,2.18,3.45c9.25,14.26,40.35,57.41,89.43,62.5
		c63.12,6.55,134.74-52.06,164.8-150.26c13.69,2.48,219.09,36.46,340.61-98.37c118.69-131.7,110.79-372.78-53.12-538.11
		l-1035.35,2.21c-163.61,165.63-171.07,406.72-52.14,538.2c121.77,134.61,327.11,100.25,340.79,97.75
		c1.45,5.29,31.55,110.45,100.86,139.73c11.8,4.99,35.4,14.96,64.21,10.23c19.29-3.17,35.2-11.99,41.63-15.55
		c12.54-6.94,22.81-16.29,22.92-16.4c0.22-0.21,0.37-0.34,0.37-0.34l0,0c-22.08-27.2-25.1-31.6-25.1-31.6
		c-12.97-18.84-18.07-36.53-20.98-46.61c-4.71-16.34-9.07-43.39-3.59-83.34C1971.09,3074.83,2003.06,3022.94,2027.18,2991.55z"/>
	<path d="M1931.16,3355.21c-25.22,0-45.08-8.39-55.65-12.86c-32.68-13.8-61.11-42.98-84.5-86.73
		c-10.31-19.27-17.44-37.49-21.68-49.63c-22.65,2.85-67.39,6.51-119.76,0.44c-40.95-4.75-79-14.57-113.1-29.17
		c-42.62-18.25-79.22-44.08-108.78-76.76c-31.11-34.39-54.25-75.72-68.78-122.85c-14.24-46.18-19.48-95.47-15.57-146.52
		c8.24-107.75,56.9-211.76,137.02-292.87l5.12-5.19l1049.96-2.24l5.15,5.19c80.27,80.96,129.12,184.88,137.56,292.62
		c4,51.04-1.15,100.34-15.31,146.54c-14.45,47.16-37.51,88.54-68.56,122.98c-29.5,32.74-66.06,58.63-108.64,76.96
		c-34.08,14.67-72.12,24.55-113.05,29.38c-52.5,6.19-97.35,2.57-119.95-0.24c-31.95,88.85-99.26,148.82-166.9,148.82
		c-3.9,0-7.79-0.2-11.68-0.6c-24.89-2.58-45.69-13.36-62.16-26.16c-4.3,3.18-9.56,6.74-15.26,9.9c-6.84,3.79-25,13.85-47.28,17.51
		C1943.05,3354.76,1936.96,3355.21,1931.16,3355.21z M1794.09,3166.4l4.24,15.47c0.28,1.02,28.61,101.96,90.8,128.24
		c10.74,4.54,30.74,12.99,54.57,9.08c16.29-2.68,30.09-10.32,35.98-13.58c2.3-1.27,4.52-2.65,6.59-4.03
		c-5.71-6.73-10.21-12.98-13.45-17.85c-0.51-0.69-0.77-1.05-0.89-1.22c-14.58-21.19-20.31-41.03-23.38-51.69
		c-7.44-25.79-8.82-56.27-4.11-90.57c7.63-55.54,31.44-110.64,68.85-159.35l27.84,21.22c-15.81,20.92-29.05,43.7-39.33,67.73
		c-9.59,22.4-24.08,56.26-24.1,101.55c-0.01,17.39-0.02,53.56,21.47,88.59c0.91,1.48,1.64,2.6,1.88,2.98l0.07,0.11
		c0.11,0.17,0.23,0.35,0.35,0.53c1.65,2.18,6.23,8.1,17.67,22.27c13.79,14.42,33.66,29.23,58.53,31.81
		c26.37,2.72,55.27-8.47,81.4-31.56c28.53-25.21,51.56-63,64.86-106.42l4.55-14.87l15.3,2.77c8.45,1.53,208.36,36,324.5-92.86
		c118.65-131.64,96.96-358.51-47.48-508.88l-1020.59,2.17c-144.19,150.62-165.46,377.54-46.57,508.98
		c116.37,128.65,316.22,93.82,324.67,92.27L1794.09,3166.4z"/>
</g>
<g>
	<path class="st5" d="M1753.36,3188.13c0,0,10.82-1.44,26.41-6.67c14.37-4.82,57.72-19.56,86.29-63.38
		c29.41-45.1,24.24-92.05,22.4-104.87c39.29-7.2,78.59-14.41,117.88-21.61l4.89,25.28c0,0-97.57,166.56-0.15,287.62
		c0,0-134.65,121.76-223.9-97.19L1753.36,3188.13z"/>
</g>
<g>
	<path class="st5" d="M2280.04,3189.98c0,0-144.68-32.03-159.15-175.57l-101.64-25.75c0,0-131.97,235.06,15.1,331.92
		c0,0,91.1,58.88,180.31-74.02l12.75-55.98L2280.04,3189.98z"/>
</g>
<g>
	<path d="M1931.16,3355.13c-25.22,0-45.08-8.39-55.65-12.85c-32.68-13.81-61.11-42.99-84.5-86.73
		c-10.31-19.27-17.44-37.49-21.68-49.63c-22.65,2.85-67.39,6.51-119.76,0.44c-40.95-4.75-79-14.57-113.1-29.17
		c-42.62-18.25-79.22-44.08-108.78-76.76c-31.11-34.39-54.25-75.72-68.78-122.85c-14.24-46.18-19.48-95.47-15.57-146.52
		c8.24-107.75,56.9-211.76,137.02-292.87l5.12-5.19l1049.96-2.24l5.15,5.19c80.27,80.96,129.12,184.88,137.56,292.62
		c4,51.04-1.15,100.34-15.31,146.54c-14.45,47.16-37.51,88.54-68.56,122.98c-29.5,32.74-66.06,58.63-108.64,76.96
		c-34.08,14.67-72.12,24.55-113.05,29.38c-52.5,6.19-97.35,2.57-119.95-0.24c-31.95,88.85-99.26,148.82-166.9,148.82
		c-3.9,0-7.79-0.2-11.68-0.6c-24.89-2.58-45.69-13.36-62.16-26.16c-4.3,3.18-9.56,6.74-15.26,9.9c-6.84,3.79-25,13.85-47.27,17.51
		C1943.05,3354.68,1936.96,3355.13,1931.16,3355.13z M1794.09,3166.32l4.24,15.47c0.28,1.02,28.61,101.96,90.8,128.24
		c10.75,4.54,30.75,12.98,54.57,9.08c16.29-2.68,30.09-10.32,35.98-13.58c2.3-1.27,4.52-2.65,6.59-4.03
		c-5.71-6.73-10.21-12.98-13.45-17.86c-0.51-0.69-0.77-1.05-0.88-1.22c-14.58-21.19-20.31-41.03-23.38-51.69
		c-7.44-25.8-8.82-56.27-4.11-90.57c7.63-55.54,31.44-110.64,68.85-159.35l27.84,21.22c-15.81,20.91-29.05,43.7-39.33,67.73
		c-9.59,22.4-24.08,56.25-24.1,101.55c-0.01,17.39-0.02,53.56,21.47,88.59c0.91,1.48,1.64,2.6,1.88,2.98l0.07,0.11
		c0.11,0.17,0.23,0.35,0.35,0.53c1.65,2.18,6.23,8.1,17.67,22.28c13.79,14.42,33.66,29.23,58.53,31.81
		c26.36,2.73,55.27-8.47,81.4-31.56c28.53-25.21,51.56-63,64.86-106.42l4.55-14.87l15.3,2.77c8.45,1.53,208.35,36,324.5-92.86
		c118.65-131.65,96.96-358.52-47.48-508.88l-1020.59,2.17c-144.19,150.62-165.46,377.54-46.57,508.98
		c116.37,128.65,316.22,93.82,324.67,92.27L1794.09,3166.32z"/>
</g>
<g>
	<g>
		<g>
			<path d="M1714.01,3174.27c14.81,0.28,29.81-0.75,44.55-3.74c7.37-1.48,14.68-3.39,21.88-5.75c7.22-2.32,14.3-5.2,21.23-8.49
				c7-3.2,13.68-7.07,20.28-11.2c6.63-4.11,12.95-8.78,19.16-13.73c12.41-9.95,23.86-21.49,34.68-34.33
				c-1.17,4.05-2.64,7.99-4.23,11.92c-0.84,1.94-1.66,3.9-2.58,5.81l-1.36,2.89l-1.47,2.83c-3.95,7.55-8.59,14.81-13.82,21.69
				c-10.41,13.8-23.35,25.94-37.91,35.96l-2.73,1.89c-0.92,0.61-1.87,1.18-2.8,1.78c-1.88,1.16-3.74,2.39-5.66,3.49l-5.82,3.25
				c-1.95,1.08-3.96,2.02-5.95,3.02c-8.02,3.89-16.35,7.23-24.91,9.89c-17.13,5.28-35.13,8.12-53.23,7.82L1714.01,3174.27z"/>
		</g>
	</g>
</g>
<g>
	<g>
		<g>
			<path d="M1972.14,3004.71c-19.97,7.95-40.59,14.2-61.44,19.22c-20.88,4.95-42.04,8.56-63.29,10.76
				c-21.23,2.29-42.57,3.22-63.8,2.5c-10.62-0.41-21.2-1.1-31.72-2.29c-10.52-1.17-20.99-2.72-31.34-4.92
				c10.5-1.29,20.91-2.49,31.26-3.85c10.35-1.39,20.63-2.82,30.84-4.49c10.22-1.62,20.37-3.44,30.46-5.4
				c10.1-1.93,20.13-4.06,30.09-6.41l7.45-1.81l7.42-1.92l3.71-0.94l3.69-1.01l7.38-2.02c9.79-2.84,19.55-5.73,29.2-8.92
				c19.32-6.31,38.3-13.46,57.09-21.01L1972.14,3004.71z"/>
		</g>
	</g>
</g>
<g>
	<g>
		<g>
			<path d="M2057.33,2976.47c18.76,7.64,37.69,14.89,56.98,21.29c9.63,3.24,19.37,6.18,29.15,9.07l7.37,2.05l3.69,1.03l3.71,0.96
				l7.41,1.96l7.45,1.85c9.95,2.4,19.97,4.58,30.05,6.56c10.08,2.01,20.23,3.88,30.44,5.55c10.21,1.72,20.48,3.2,30.82,4.64
				c10.34,1.42,20.75,2.66,31.24,4.01c-10.36,2.15-20.83,3.65-31.36,4.76c-10.53,1.14-21.12,1.77-31.74,2.13
				c-21.24,0.61-42.57-0.41-63.79-2.82c-21.24-2.31-42.38-6.03-63.23-11.08c-20.83-5.12-41.42-11.48-61.34-19.53L2057.33,2976.47z"
				/>
		</g>
	</g>
</g>
<g>
	<g>
		<g>
			<path d="M1769.52,2925.23c10.45,3.48,20.78,6.95,31.07,10.31c5.2,1.55,10.28,3.34,15.48,4.81c2.59,0.75,5.15,1.57,7.72,2.35
				l7.76,2.19c2.59,0.69,5.12,1.55,7.73,2.2l7.75,2.06c5.14,1.43,10.34,2.65,15.5,3.96c10.36,2.47,20.71,4.82,31.1,6.89
				c20.77,4.15,41.6,7.4,62.49,9.74l7.84,0.82c2.61,0.28,5.21,0.62,7.84,0.76c5.24,0.36,10.47,0.81,15.7,1.22
				c5.24,0.3,10.48,0.51,15.72,0.77c5.23,0.36,10.48,0.34,15.73,0.43l7.87,0.16l3.93,0.08l3.93-0.09l15.74-0.23
				c5.25-0.1,10.48-0.49,15.73-0.68c2.62-0.13,5.25-0.18,7.87-0.37l7.86-0.62l7.86-0.59c1.31-0.11,2.63-0.16,3.93-0.3l3.92-0.42
				l15.72-1.65l15.69-2.06l1.97-0.24l1.96-0.31l3.91-0.63l7.84-1.22l3.93-0.6l3.91-0.71l7.83-1.42c5.25-0.84,10.43-2.01,15.66-3.01
				c2.61-0.54,5.25-0.98,7.83-1.6c2.6-0.59,5.19-1.21,7.81-1.76c2.61-0.59,5.25-1.08,7.83-1.76c2.6-0.63,5.19-1.3,7.8-1.91
				c10.45-2.47,20.82-5.33,31.29-8.15l31.45-9.11c-17.73,13.05-36.97,24.03-56.98,33.47c-5.02,2.33-10.05,4.66-15.17,6.76
				c-5.1,2.16-10.25,4.25-15.46,6.15c-5.2,1.96-10.41,3.91-15.71,5.58l-7.94,2.56l-3.98,1.26l-4.02,1.12l-8.05,2.23l-4.03,1.1
				l-2.02,0.55l-2.03,0.48l-16.31,3.73c-10.95,2.1-21.94,4.19-33.05,5.49l-8.32,1.09c-2.78,0.33-5.57,0.51-8.35,0.78l-8.36,0.7
				l-4.18,0.34l-2.09,0.17l-2.1,0.09l-16.78,0.58l-4.2,0.11l-4.2-0.06l-8.4-0.12c-11.2-0.03-22.37-0.94-33.52-1.77
				c-5.56-0.63-11.13-1.21-16.68-1.89c-2.78-0.28-5.54-0.77-8.3-1.18l-8.28-1.32c-22.04-3.73-43.79-9.06-64.94-16.04
				c-10.57-3.49-21.01-7.35-31.24-11.68c-10.24-4.29-20.3-8.96-30.12-14.06C1805.58,2950.58,1786.76,2938.93,1769.52,2925.23z"/>
		</g>
	</g>
</g>
<g>
	<g>
		<g>
			<path d="M1965.6,3349.8l-0.4,0l-0.19,0l-0.12,0l-0.47-0.02c-0.33-0.01-0.6-0.03-0.87-0.05c-0.54-0.04-1.08-0.08-1.57-0.14
				c-1.02-0.1-1.97-0.23-2.93-0.37c-1.9-0.28-3.72-0.62-5.53-1c-3.59-0.77-7.06-1.75-10.46-2.85c-6.78-2.26-13.23-5.12-19.3-8.55
				c-12.15-6.83-22.56-15.98-30.95-26.22c-4.2-5.13-7.8-10.62-11.08-16.17l-2.29-4.25c-0.37-0.71-0.78-1.4-1.12-2.13l-1.02-2.17
				l-2.02-4.32l-1.79-4.4c-4.68-11.73-7.79-23.8-9.78-35.9c4.78,11.29,10.58,22.05,17.48,31.74l2.6,3.61l2.77,3.45l1.38,1.71
				c0.46,0.57,0.97,1.1,1.46,1.65l2.92,3.25c4.06,4.16,8.25,8.07,12.76,11.46c9.02,6.77,18.9,11.8,29.14,14.62
				c5.11,1.42,10.29,2.31,15.4,2.71c2.55,0.17,5.09,0.24,7.55,0.15c1.22-0.06,2.43-0.13,3.58-0.26c0.57-0.07,1.13-0.13,1.64-0.22
				c0.27-0.04,0.49-0.09,0.71-0.13c0.12-0.02,0.22-0.05,0.28-0.07l0.1-0.04l0.03-0.01l-0.05-0.01l-0.11-0.01L1965.6,3349.8z"/>
		</g>
	</g>
</g>
<g>
	<g>
		<g>
			<path d="M1971.9,3273.67c-10.65-9.33-19.65-19.95-26.75-31.29c-7.12-11.33-12.33-23.36-15.67-35.49
				c8.46,9.32,18,17.12,28.11,23.18c10.1,6.08,20.77,10.42,31.46,13.09L1971.9,3273.67z"/>
		</g>
	</g>
</g>
<g class="st4">
	<path d="M1963.61,3265.53c-42.6,13.57-91.67-4.88-131.52-113.43c-12.02,2.37-210.77,38.06-348.22-109.74
		c-114.53-123.16-97.86-278.4-95.1-300.62c-3.69,8.54-73.07,176.71,30.14,320.82c79.09,110.43,225.46,159.15,363.34,118.79
		c12.23,104.65,107.88,165.24,180.92,145.46c7.93-2.15,15.63-5.25,22.99-9.21C2016.81,3301.14,1996.76,3254.97,1963.61,3265.53z"/>
</g>
<g>
	<g>
		<g>
			<path d="M2308.84,3209.13c-18.1,0.33-36.11-2.48-53.24-7.72c-8.57-2.64-16.9-5.97-24.93-9.84c-2-1-4.01-1.94-5.96-3.01
				l-5.83-3.24c-1.93-1.09-3.79-2.32-5.67-3.48c-0.94-0.59-1.88-1.16-2.8-1.77l-2.73-1.89c-14.57-9.99-27.53-22.11-37.97-35.89
				c-5.24-6.87-9.89-14.12-13.86-21.66l-1.47-2.83l-1.36-2.89c-0.92-1.91-1.75-3.87-2.59-5.8c-1.59-3.93-3.07-7.87-4.25-11.91
				c10.85,12.83,22.32,24.34,34.74,34.27c6.22,4.94,12.54,9.6,19.18,13.7c6.61,4.11,13.3,7.98,20.3,11.16
				c6.94,3.28,14.02,6.15,21.25,8.45c7.21,2.35,14.52,4.24,21.89,5.71c14.74,2.97,29.75,3.97,44.56,3.66L2308.84,3209.13z"/>
		</g>
	</g>
</g>
<g>
	<g>
		<g>
			<path d="M2056.51,3314.36l-0.11,0.01l-0.05,0.01l0.03,0.01l0.1,0.04c0.05,0.03,0.16,0.05,0.28,0.07c0.22,0.05,0.44,0.1,0.71,0.13
				c0.51,0.09,1.07,0.15,1.64,0.22c1.15,0.12,2.35,0.2,3.58,0.25c2.46,0.08,4.99,0.01,7.55-0.17c5.11-0.41,10.29-1.31,15.39-2.74
				c10.23-2.84,20.1-7.89,29.11-14.68c4.5-3.4,8.69-7.32,12.74-11.48l2.92-3.25c0.48-0.55,0.99-1.08,1.45-1.65l1.38-1.72l2.77-3.46
				l2.59-3.61c6.89-9.71,12.66-20.48,17.42-31.77c-1.97,12.1-5.05,24.17-9.72,35.92l-1.78,4.41l-2.01,4.33l-1.02,2.17
				c-0.34,0.72-0.74,1.42-1.11,2.13l-2.29,4.26c-3.26,5.56-6.86,11.05-11.05,16.19c-8.37,10.26-18.76,19.43-30.9,26.28
				c-6.06,3.44-12.51,6.31-19.28,8.58c-3.4,1.11-6.87,2.09-10.46,2.87c-1.8,0.38-3.63,0.73-5.52,1.01
				c-0.95,0.14-1.91,0.27-2.93,0.37c-0.49,0.06-1.03,0.1-1.57,0.14c-0.26,0.02-0.54,0.04-0.87,0.05l-0.47,0.02l-0.12,0l-0.19,0
				l-0.4,0L2056.51,3314.36z"/>
		</g>
	</g>
</g>
<g>
	<g>
		<g>
			<path d="M1984.89,3260.92l-0.11,0.01l-0.05,0.01l0.03,0.01l0.1,0.04c0.05,0.03,0.16,0.05,0.28,0.07c0.22,0.05,0.44,0.1,0.71,0.13
				c0.51,0.09,1.07,0.15,1.64,0.22c1.15,0.12,2.35,0.2,3.58,0.25c2.46,0.08,4.99,0.01,7.55-0.17c5.11-0.41,10.29-1.31,15.39-2.74
				c10.23-2.84,20.1-7.89,29.11-14.68c4.5-3.4,8.69-7.32,12.74-11.48l2.92-3.25c0.48-0.55,0.99-1.08,1.45-1.65l1.38-1.72l2.77-3.46
				l2.59-3.61c6.89-9.71,12.66-20.48,17.42-31.77c-1.97,12.1-5.05,24.17-9.72,35.92l-1.78,4.41l-2.01,4.33l-1.02,2.17
				c-0.34,0.72-0.74,1.42-1.11,2.13l-2.29,4.26c-3.26,5.56-6.86,11.05-11.05,16.19c-8.37,10.26-18.76,19.43-30.9,26.28
				c-6.06,3.44-12.51,6.31-19.28,8.58c-3.4,1.11-6.87,2.09-10.46,2.87c-1.8,0.38-3.63,0.73-5.52,1.01
				c-0.95,0.14-1.91,0.27-2.93,0.37c-0.49,0.06-1.03,0.1-1.57,0.14c-0.26,0.02-0.54,0.04-0.87,0.05l-0.47,0.02l-0.12,0l-0.19,0
				l-0.4,0L1984.89,3260.92z"/>
		</g>
	</g>
</g>
<g class="st4">
	<path d="M1959.72,3176.57c0,0,139.65,222.16,230.27-26.05c12.03,2.35,210.84,37.68,348.01-110.37
		c114.31-123.37,97.35-278.58,94.55-300.79c3.71,8.53,73.39,176.58-29.56,320.87c-78.89,110.57-225.17,159.56-363.12,119.46
		c-12.04,104.67-107.58,165.43-180.66,145.79C2004,3310.63,1960.24,3249.52,1959.72,3176.57z"/>
</g>
<g>
	<path d="M2086.27,3354.33c-3.79,0-7.58-0.19-11.37-0.57c-56.66-5.72-92.22-53.56-104.88-73.86
		c-49.77-79.81-30.62-199.5,48.77-304.93l27.96,21.05c-34.96,46.42-57.75,96.28-65.91,144.21c-7.95,46.7-1.43,88.59,18.88,121.15
		c9.93,15.92,37.47,53.39,78.7,57.56c26.36,2.66,55.25-8.62,81.32-31.78c28.46-25.28,51.39-63.14,64.57-106.59l4.51-14.88
		l15.31,2.73c2.99,0.53,29.91,5.11,68.56,5.11c70.74,0,180.81-15.33,255.69-98.86c119.66-133.5,95.46-364.05-53.96-513.92
		l24.79-24.71c80.49,80.74,129.62,184.53,138.36,292.24c4.14,51.03-0.88,100.35-14.91,146.59c-14.32,47.2-37.27,88.64-68.22,123.17
		c-29.42,32.82-65.9,58.81-108.43,77.26c-34.04,14.76-72.05,24.75-112.97,29.69c-52.49,6.33-97.34,2.83-119.95,0.09
		C2221.32,3294.13,2154,3354.32,2086.27,3354.33z"/>
</g>
<g>
	<path class="st1" d="M1633.77,2169.2l775.18-2.34c15.99,29.16,30.92,68.69,17.82,104.97c-30.27,83.8-189.15,92.09-409.79,101.26
		c-309.07,12.84-353.66-40.07-367.77-61.41C1619.65,2267.03,1624.38,2210.77,1633.77,2169.2z"/>
</g>
<g>
	<g>
		<g>
			<path class="st1" d="M1643.99,2194.28c-46.63,178.22,189.17,171,189.17,171c6.66-77.91,53.88-137.29,110.96-147.51
				c33.84-6.06,63.2,6.57,78.92,15.21l1.01,336.64c-254.36,158.82-535.22,59.54-599.46-96.11
				c-51.29-124.3,22.13-317.09,196.98-434.48l802.6-3.13c175.56,116.31,250.17,308.64,199.65,433.26
				c-63.27,156.04-343.52,257.04-598.85,99.8l-1.06-336.64c15.67-8.74,44.95-21.55,78.83-15.7
				c57.14,9.87,104.72,68.96,111.86,146.83c0,0,235.83,5.77,188.11-172.16L1643.99,2194.28z"/>
		</g>
		<g>
			<path class="st1" d="M1643.99,2194.28c-0.9,12.9-1.27,25.56-0.38,37.84c0.98,12.27,3.25,24.14,7.33,35.03
				c4.11,10.87,9.8,20.82,17.29,29.3c7.46,8.49,16.37,15.69,26.28,21.57c9.9,5.9,20.65,10.63,31.83,14.45
				c11.2,3.81,22.81,6.72,34.61,8.99c11.81,2.24,23.82,3.86,35.89,4.92c6.03,0.54,12.09,0.94,18.12,1.21
				c3.02,0.14,6.03,0.24,9.03,0.31l4.46,0.07l4.16,0.01h0l-16.73,15.84c1.09-12.54,3.18-25.02,6.29-37.29
				c3.16-12.26,7.38-24.3,12.72-35.9c1.38-2.88,2.72-5.78,4.25-8.6c1.45-2.85,3.06-5.63,4.66-8.42c3.3-5.51,6.77-10.95,10.68-16.11
				l1.44-1.95l1.51-1.91c1.02-1.26,2-2.55,3.05-3.79c2.12-2.47,4.22-4.95,6.49-7.31c2.19-2.42,4.58-4.67,6.91-6.97
				c2.44-2.21,4.84-4.45,7.42-6.51c2.5-2.14,5.19-4.1,7.84-6.08l4.11-2.83c1.36-0.95,2.81-1.79,4.22-2.69
				c5.7-3.47,11.64-6.66,17.9-9.23c6.24-2.6,12.71-4.75,19.35-6.35c3.34-0.71,6.68-1.45,10.08-1.88c3.38-0.58,6.79-0.8,10.19-1.08
				c6.81-0.33,13.63-0.25,20.34,0.48c6.7,0.74,13.31,1.95,19.75,3.59c12.86,3.35,25.03,8.4,36.41,14.62l9.06,4.95l0.04,10.37
				l1.16,336.64l0.03,9.85l-8.35,5.21c-43.43,27.08-90.52,48.69-139.91,63c-49.36,14.34-100.96,21.38-152.51,20.26
				c-25.77-0.62-51.53-3.14-76.92-7.95c-25.39-4.77-50.45-11.58-74.71-20.77c-24.26-9.17-47.77-20.57-69.92-34.45
				c-22.13-13.88-42.92-30.25-61.3-49.35c-18.39-19.05-34.24-41.05-45.83-65.53c-0.76-1.51-1.42-3.08-2.1-4.63l-2.03-4.66
				l-3.59-9.51l-0.89-2.38l-0.44-1.19l-0.37-1.21l-1.48-4.84l-1.47-4.85l-0.73-2.42l-0.59-2.45l-2.34-9.82
				c-0.43-1.63-0.64-3.29-0.96-4.94l-0.88-4.95l-0.87-4.95c-0.25-1.65-0.41-3.31-0.62-4.97l-1.16-9.94l-0.64-9.96
				c-0.09-1.66-0.25-3.32-0.27-4.98l-0.06-4.97c-0.01-3.31-0.12-6.63-0.05-9.94l0.39-9.9c0.09-1.65,0.08-3.31,0.25-4.94l0.43-4.92
				c0.31-3.28,0.54-6.56,0.92-9.83l1.32-9.76c0.23-1.62,0.43-3.26,0.69-4.87l0.88-4.83c4.58-25.79,11.81-50.95,21.48-75.01
				c9.6-24.09,21.31-47.23,34.74-69.25c13.43-22.02,28.57-42.93,45.19-62.55c33.2-39.28,72.01-73.59,114.55-102.21l4.48-3.01
				l5.41-0.02l802.6-2.98l5.39-0.02l4.46,2.97c42.69,28.36,81.68,62.44,115.09,101.52c16.72,19.52,31.98,40.33,45.52,62.27
				c13.54,21.93,25.38,44.99,35.11,69.01c9.8,23.99,17.17,49.08,21.89,74.82l0.9,4.82c0.27,1.61,0.47,3.24,0.71,4.86l1.38,9.74
				c0.39,3.26,0.65,6.54,0.97,9.81l0.46,4.91c0.18,1.63,0.18,3.29,0.28,4.94l0.45,9.88c0.09,3.3,0,6.62,0.01,9.92l-0.03,4.96
				c-0.01,1.65-0.16,3.31-0.24,4.97l-0.58,9.95l-1.1,9.94c-0.2,1.66-0.35,3.31-0.59,4.97l-0.84,4.95l-0.85,4.95
				c-0.31,1.65-0.51,3.3-0.93,4.93l-2.28,9.81l-0.58,2.45l-0.72,2.42l-1.44,4.85l-1.45,4.84l-0.37,1.21l-0.44,1.19l-0.87,2.38
				l-3.53,9.51l-2,4.66c-0.67,1.55-1.32,3.12-2.07,4.63c-11.43,24.51-27.13,46.56-45.38,65.69c-18.24,19.18-38.91,35.65-60.94,49.64
				c-22.04,13.99-45.46,25.52-69.64,34.81c-24.18,9.32-49.17,16.27-74.5,21.19c-25.33,4.95-51.05,7.63-76.79,8.41
				c-51.49,1.44-103.08-5.28-152.48-19.31c-49.43-13.99-96.6-35.29-140.16-62.08l-8.14-5l-0.03-9.56l-0.45-168.32l-0.29-84.16
				l-0.44-84.16l-0.05-10.17l8.92-4.98c11.3-6.31,23.41-11.46,36.22-14.93c6.42-1.71,13.01-2.98,19.7-3.78
				c6.7-0.79,13.52-0.94,20.33-0.67c3.41,0.25,6.82,0.44,10.2,0.99c3.4,0.4,6.75,1.11,10.1,1.8c6.65,1.55,13.14,3.65,19.41,6.2
				c6.29,2.52,12.25,5.67,17.99,9.1c1.41,0.89,2.87,1.71,4.25,2.65l4.13,2.8c2.67,1.96,5.38,3.9,7.9,6.02
				c2.6,2.05,5.02,4.27,7.47,6.47c2.35,2.28,4.76,4.53,6.96,6.93c2.28,2.34,4.4,4.82,6.54,7.28c1.05,1.24,2.05,2.52,3.07,3.78
				l1.52,1.9l1.45,1.95c3.94,5.15,7.42,10.58,10.75,16.08c1.61,2.78,3.23,5.55,4.69,8.4c1.54,2.81,2.89,5.71,4.28,8.59
				c5.35,11.6,9.59,23.63,12.75,35.88c3.08,12.27,5.15,24.74,6.21,37.26l-16.39-15.33l1.98,0.05l2.19,0.02l4.47-0.03
				c3-0.04,6.02-0.14,9.05-0.27c6.05-0.26,12.11-0.71,18.16-1.27c12.09-1.13,24.11-2.9,35.9-5.35c11.79-2.44,23.36-5.63,34.46-9.69
				c11.09-4.07,21.68-9.1,31.32-15.28c9.66-6.15,18.33-13.42,25.62-21.86c7.34-8.41,13.05-18.18,17.17-28.94l1.48-4.08l1.27-4.18
				c0.48-1.39,0.76-2.83,1.14-4.26c0.35-1.43,0.76-2.86,1.01-4.33l0.88-4.4c0.22-1.48,0.43-2.97,0.67-4.47
				c0.27-1.49,0.41-3,0.57-4.52c0.15-1.52,0.35-3.04,0.46-4.57c0.2-3.06,0.47-6.15,0.5-9.27c0.04-1.56,0.13-3.12,0.13-4.69
				l-0.02-4.72l0-2.38l-0.09-2.37l-0.15-4.78c-0.08-3.21-0.39-6.39-0.47-9.66c0.71,1.46,1.4,2.92,2.05,4.41
				c0.65,1.48,1.38,2.95,1.97,4.47l1.76,4.56c0.29,0.76,0.59,1.53,0.86,2.3l0.75,2.33c0.5,1.56,1.01,3.12,1.49,4.7
				c0.46,1.58,0.84,3.18,1.27,4.77c0.89,3.19,1.43,6.46,2.1,9.73c1.03,6.58,1.85,13.31,1.77,20.14c-0.01,6.82-0.5,13.76-1.88,20.63
				c-1.33,6.87-3.38,13.68-6.11,20.26c-2.73,6.58-6.24,12.88-10.31,18.75c-8.14,11.78-18.54,21.84-29.95,29.9
				c-11.43,8.07-23.7,14.51-36.25,19.77c-12.58,5.21-25.47,9.24-38.47,12.46c-13,3.2-26.13,5.51-39.31,7.17
				c-6.59,0.84-13.2,1.46-19.85,1.92c-3.32,0.23-6.65,0.42-10.01,0.55l-5.06,0.16l-2.57,0.04l-2.78,0l-14.76,0.02l-1.63-15.35
				c-1.13-10.7-3.08-21.27-5.88-31.56c-2.81-10.28-6.49-20.29-11.03-29.81c-1.17-2.36-2.29-4.75-3.58-7.03
				c-1.21-2.34-2.55-4.58-3.88-6.84c-2.74-4.45-5.6-8.83-8.76-12.93l-1.16-1.56l-1.22-1.5c-0.82-1-1.61-2.02-2.45-3
				c-1.7-1.93-3.37-3.9-5.17-5.72c-1.73-1.9-3.61-3.61-5.44-5.4c-1.91-1.68-3.76-3.42-5.75-4.97
				c-15.62-12.82-34.32-20.96-53.59-21.91c-4.83-0.2-9.71-0.15-14.59,0.4c-4.89,0.56-9.78,1.46-14.64,2.72
				c-9.71,2.57-19.26,6.53-28.34,11.53l8.86-15.15l0.09,84.16l0.24,84.16l0.61,168.32l-8.16-14.56
				c41.08,25.2,85.34,45.11,131.55,58.15c46.18,13.07,94.26,19.26,142.1,17.88c23.91-0.75,47.76-3.25,71.19-7.86
				c23.42-4.57,46.47-11.01,68.65-19.58c22.17-8.55,43.53-19.1,63.42-31.76c19.88-12.65,38.32-27.42,54.31-44.27
				c16.02-16.8,29.41-35.83,38.98-56.38c0.64-1.27,1.16-2.58,1.73-3.88l1.67-3.89l2.93-7.96l0.74-1.99l0.37-0.99l0.3-1.02l1.21-4.08
				l1.22-4.08l0.61-2.04l0.48-2.08l1.93-8.34c0.37-1.38,0.52-2.81,0.78-4.22l0.72-4.24l0.73-4.24c0.2-1.42,0.33-2.86,0.5-4.28
				l0.95-8.58l0.49-8.65c0.07-1.44,0.21-2.88,0.21-4.33l0.01-4.35c-0.01-2.9,0.08-5.8-0.01-8.7l-0.41-8.73
				c-0.09-1.45-0.08-2.91-0.25-4.36l-0.42-4.36c-0.3-2.91-0.51-5.82-0.86-8.72l-1.25-8.7c-0.21-1.45-0.39-2.9-0.64-4.35l-0.82-4.33
				c-4.27-23.11-10.95-45.94-19.97-67.93c-8.95-22.01-19.88-43.3-32.46-63.62c-12.58-20.32-26.79-39.69-42.41-57.89
				c-31.21-36.43-67.75-68.34-107.84-94.92l9.85,2.95l-802.6,3.29l9.89-3.03c-39.89,26.84-76.21,58.98-107.17,95.59
				c-15.49,18.29-29.57,37.74-42,58.14c-12.43,20.39-23.22,41.73-32.02,63.79c-8.87,22.03-15.39,44.88-19.5,68l-0.79,4.33
				c-0.23,1.45-0.4,2.9-0.61,4.35l-1.19,8.7c-0.33,2.9-0.53,5.81-0.81,8.72l-0.39,4.36c-0.16,1.45-0.14,2.91-0.22,4.36l-0.35,8.72
				c-0.06,2.9,0.04,5.79,0.05,8.69l0.04,4.34c0.02,1.45,0.17,2.88,0.24,4.32l0.54,8.64l1.01,8.56c0.18,1.42,0.31,2.86,0.52,4.27
				l0.75,4.22l0.74,4.22c0.27,1.4,0.44,2.83,0.81,4.2l1.98,8.31l0.49,2.08l0.62,2.03l1.24,4.07l1.23,4.07l0.31,1.02l0.37,0.99
				l0.75,1.98l2.97,7.92l1.7,3.87c0.57,1.29,1.1,2.59,1.75,3.86c9.68,20.44,23.17,39.34,39.27,56.01
				c16.08,16.71,34.58,31.33,54.52,43.83c19.95,12.51,41.35,22.91,63.55,31.29c22.2,8.42,45.26,14.69,68.68,19.12
				c23.42,4.46,47.27,6.81,71.15,7.41c47.8,1.08,95.78-5.4,141.83-18.74c46.08-13.31,90.17-33.47,131.05-58.9l-8.32,15.06
				l-0.87-336.64l9.09,15.32c-9.08-4.97-18.61-8.9-28.32-11.45c-4.86-1.25-9.74-2.14-14.63-2.69c-4.89-0.55-9.76-0.58-14.59-0.38
				c-19.28,0.99-37.96,9.23-53.55,22.11c-15.64,12.89-28.19,30.17-37.05,49.28c-4.42,9.58-7.97,19.62-10.65,29.93
				c-2.63,10.33-4.42,20.91-5.38,31.6l-1.38,15.47l-15.35,0.37l-0.01,0l-2.79,0.06l-2.58,0.02c-1.71,0-3.39-0.02-5.07-0.06
				c-3.36-0.07-6.7-0.22-10.03-0.4c-6.66-0.38-13.29-0.97-19.9-1.75c-13.22-1.58-26.37-3.88-39.39-7.14
				c-13.02-3.24-25.9-7.39-38.44-12.71c-12.52-5.37-24.71-11.96-35.97-20.18c-5.64-4.08-10.99-8.66-15.98-13.64
				c-4.99-4.97-9.59-10.39-13.63-16.21c-4.03-5.81-7.61-11.97-10.39-18.46c-2.81-6.47-4.87-13.2-6.33-19.98
				c-2.81-13.62-2.75-27.4-0.72-40.5C1634.59,2218.53,1638.51,2205.99,1643.99,2194.28z"/>
		</g>
	</g>
</g>
<g class="st2">
	<path class="st3" d="M1642.59,2051.23c0,0-312.77,213.08-199.47,468.63c-26.13-29.33-39.66-57.71-46.92-81.54
		c-38.06-124.98,47.94-284.52,210.5-405.73L1642.59,2051.23z"/>
</g>
<g class="st2">
	<path class="st3" d="M2417.79,2054.29c0,0,310.49,216.38,194.49,470.72c26.44-29.05,40.27-57.29,47.79-81.04
		c39.39-124.57-44.92-285.02-206.18-407.94L2417.79,2054.29z"/>
</g>
<g class="st2">
	<path class="st3" d="M1834.92,2397.05c0,0-240.85,11.08-206.42-180.74c-1.57,12.73-3.49,43.33,14.39,72.47
		c15.45,25.18,37.57,36.04,59.54,46.46c47.42,22.49,94.53,26.15,130.26,24.24L1834.92,2397.05z"/>
</g>
<g class="st2">
	<path class="st3" d="M2218.57,2392.27c0,0,241.02,6.44,202.9-184.68c1.81,12.69,4.33,43.25-12.99,72.74
		c-14.96,25.48-36.87,36.76-58.63,47.6c-46.98,23.4-94.01,27.97-129.77,26.74L2218.57,2392.27z"/>
</g>
<g class="st2">
	<path class="st3" d="M2024.58,2265.96c-9.31-6.28-45.73-29.29-89.06-19.96c-51.69,11.13-92.4,63.79-94.51,129.34
		c0,0,4.86-217.2,185.13-144.4C2025.62,2242.62,2025.1,2254.29,2024.58,2265.96z"/>
</g>
<g class="st2">
	<path class="st3" d="M2029.49,2263.1c9.52-5.96,46.71-27.69,89.7-16.86c51.28,12.91,90.13,66.95,89.97,132.54
		c0,0,2.66-217.24-180.01-150.72C2029.26,2239.74,2029.37,2251.42,2029.49,2263.1z"/>
</g>
<g>
	<path class="st5" d="M2026.14,2230.95c-15.05-6.51-63.64-25.22-110.04-4.67c-62.23,27.56-98.38,115.93-70.47,210.03
		c0,0,86.64,178.35-3.3,206.12c0,0,98.07-3.68,176.36-69.32L2026.14,2230.95z"/>
</g>
<g>
	<path class="st5" d="M2017.01,2231.22c14.71-7.26,62.29-28.39,109.67-10.19c63.53,24.4,104.08,110.84,80.94,206.22
		c0,0-77.57,182.48,13.65,205.7c0,0-98.14,1.25-179.63-60.37L2017.01,2231.22z"/>
</g>
<g>
	<g>
		<g>
			<path d="M1636.34,2191.7c-0.93,13.22-1.31,26.2-0.39,38.79c1,12.58,3.33,24.74,7.51,35.91c4.21,11.14,10.05,21.34,17.72,30.03
				c7.65,8.7,16.78,16.08,26.94,22.11c10.15,6.04,21.16,10.9,32.62,14.81c11.48,3.9,23.38,6.89,35.48,9.21
				c12.11,2.3,24.42,3.96,36.79,5.04c6.18,0.55,12.39,0.96,18.58,1.24c3.09,0.14,6.18,0.24,9.25,0.31l4.57,0.07l4.27,0.01h0
				l-17.15,16.23c1.12-12.85,3.26-25.65,6.44-38.23c3.24-12.57,7.57-24.91,13.04-36.8c1.42-2.95,2.79-5.93,4.36-8.81
				c1.48-2.93,3.13-5.77,4.77-8.63c3.39-5.65,6.94-11.22,10.94-16.52l1.47-2l1.55-1.95c1.04-1.3,2.05-2.61,3.12-3.89
				c2.17-2.53,4.32-5.08,6.65-7.49c2.24-2.48,4.69-4.79,7.09-7.14c2.5-2.26,4.96-4.56,7.6-6.68c2.57-2.2,5.32-4.2,8.04-6.23
				l4.21-2.9c1.4-0.97,2.88-1.84,4.33-2.75c5.85-3.56,11.93-6.83,18.35-9.46c6.4-2.67,13.03-4.87,19.83-6.51
				c3.43-0.73,6.85-1.48,10.33-1.93c3.46-0.59,6.96-0.82,10.44-1.11c6.98-0.34,13.97-0.25,20.85,0.5
				c6.87,0.76,13.64,1.99,20.24,3.68c13.19,3.44,25.66,8.61,37.32,14.99l9.28,5.07l0.04,10.63l1.19,345.08l0.03,10.09l-8.56,5.34
				c-44.52,27.76-92.79,49.91-143.42,64.58c-50.6,14.7-103.49,21.92-156.34,20.77c-26.42-0.63-52.82-3.22-78.85-8.15
				c-26.02-4.89-51.72-11.87-76.59-21.29c-24.87-9.4-48.97-21.09-71.68-35.32c-22.69-14.23-44-31.01-62.84-50.59
				c-18.85-19.53-35.09-42.08-46.98-67.18c-0.78-1.55-1.45-3.15-2.15-4.74l-2.08-4.78l-3.68-9.75l-0.91-2.44l-0.45-1.22l-0.38-1.24
				l-1.52-4.96l-1.51-4.97l-0.75-2.48l-0.61-2.51l-2.4-10.06c-0.44-1.67-0.66-3.37-0.98-5.06l-0.9-5.07l-0.89-5.07
				c-0.25-1.69-0.42-3.4-0.64-5.09l-1.19-10.19l-0.65-10.2c-0.09-1.7-0.25-3.4-0.28-5.1l-0.06-5.09c-0.01-3.39-0.13-6.8-0.05-10.18
				l0.4-10.15c0.09-1.69,0.09-3.39,0.26-5.07l0.44-5.04c0.31-3.36,0.56-6.73,0.94-10.08l1.36-10c0.24-1.67,0.44-3.34,0.7-5l0.9-4.95
				c4.7-26.43,12.11-52.22,22.02-76.89c9.84-24.7,21.85-48.41,35.61-70.98c13.76-22.57,29.29-44.01,46.32-64.12
				c34.03-40.27,73.82-75.44,117.42-104.77l4.59-3.09l5.54-0.02l822.73-3.05l5.52-0.02l4.58,3.04
				c43.76,29.07,83.73,64.01,117.98,104.06c17.14,20.01,32.78,41.34,46.66,63.83c13.88,22.48,26.02,46.11,35.99,70.74
				c10.05,24.59,17.6,50.32,22.44,76.7l0.93,4.94c0.28,1.65,0.49,3.32,0.73,4.99l1.41,9.98c0.4,3.34,0.66,6.71,1,10.06l0.47,5.03
				c0.18,1.67,0.19,3.37,0.29,5.06l0.46,10.13c0.09,3.38,0,6.78,0.01,10.17l-0.03,5.09c-0.01,1.7-0.17,3.4-0.25,5.1l-0.59,10.19
				l-1.13,10.19c-0.2,1.7-0.36,3.4-0.61,5.09l-0.86,5.07l-0.87,5.07c-0.31,1.69-0.52,3.39-0.95,5.06l-2.33,10.06l-0.59,2.51
				l-0.73,2.48l-1.48,4.97l-1.49,4.96l-0.38,1.24l-0.45,1.22l-0.9,2.44l-3.61,9.75l-2.05,4.78c-0.69,1.59-1.35,3.2-2.12,4.75
				c-11.72,25.12-27.81,47.73-46.52,67.33c-18.7,19.66-39.89,36.54-62.46,50.88c-22.59,14.34-46.6,26.16-71.39,35.68
				c-24.79,9.56-50.41,16.68-76.37,21.72c-25.97,5.08-52.33,7.82-78.71,8.62c-52.78,1.47-105.66-5.41-156.3-19.79
				c-50.67-14.34-99.03-36.18-143.68-63.64l-8.34-5.13l-0.03-9.79l-0.46-172.54l-0.3-86.27l-0.45-86.27l-0.05-10.43l9.14-5.1
				c11.59-6.47,23.99-11.75,37.13-15.31c6.58-1.75,13.33-3.05,20.19-3.87c6.87-0.81,13.85-0.97,20.83-0.69
				c3.49,0.26,6.99,0.45,10.46,1.01c3.49,0.41,6.92,1.14,10.35,1.84c6.82,1.59,13.47,3.74,19.9,6.35
				c6.44,2.59,12.56,5.81,18.44,9.32c1.45,0.91,2.95,1.76,4.35,2.72l4.24,2.87c2.74,2.01,5.51,3.99,8.1,6.17
				c2.66,2.1,5.15,4.38,7.66,6.63c2.41,2.34,4.88,4.64,7.14,7.11c2.34,2.4,4.51,4.94,6.7,7.46c1.08,1.27,2.1,2.58,3.15,3.87
				l1.56,1.95l1.49,2c4.04,5.28,7.61,10.85,11.02,16.49c1.65,2.85,3.31,5.69,4.81,8.61c1.58,2.88,2.96,5.85,4.39,8.8
				c5.49,11.89,9.83,24.22,13.07,36.78c3.16,12.58,5.28,25.36,6.36,38.19l-16.8-15.71l2.03,0.05l2.25,0.02l4.58-0.03
				c3.08-0.05,6.17-0.14,9.27-0.28c6.2-0.27,12.42-0.73,18.61-1.3c12.39-1.16,24.71-2.97,36.8-5.48c12.09-2.5,23.94-5.77,35.32-9.93
				c11.36-4.18,22.23-9.33,32.11-15.66c9.9-6.3,18.79-13.75,26.26-22.41c7.52-8.62,13.37-18.63,17.6-29.66l1.51-4.18l1.3-4.29
				c0.49-1.42,0.78-2.9,1.16-4.37c0.36-1.47,0.78-2.94,1.04-4.44l0.9-4.51c0.22-1.52,0.44-3.05,0.69-4.58
				c0.28-1.53,0.42-3.08,0.58-4.63c0.15-1.55,0.36-3.11,0.47-4.68c0.21-3.14,0.48-6.31,0.52-9.5c0.04-1.6,0.13-3.2,0.13-4.81
				l-0.02-4.84l0-2.44l-0.09-2.43l-0.16-4.9c-0.08-3.29-0.4-6.55-0.48-9.9c0.73,1.49,1.43,3,2.11,4.52
				c0.67,1.52,1.42,3.03,2.02,4.58l1.81,4.67c0.3,0.78,0.6,1.57,0.88,2.36l0.77,2.39c0.51,1.6,1.04,3.2,1.53,4.81
				c0.47,1.62,0.86,3.26,1.3,4.89c0.92,3.27,1.47,6.62,2.15,9.98c1.06,6.74,1.89,13.64,1.81,20.65c-0.01,6.99-0.51,14.11-1.93,21.14
				c-1.37,7.04-3.46,14.02-6.26,20.77c-2.79,6.75-6.39,13.2-10.56,19.22c-8.35,12.07-19,22.39-30.7,30.65
				c-11.72,8.27-24.29,14.88-37.16,20.27c-12.9,5.34-26.11,9.47-39.43,12.77c-13.33,3.28-26.78,5.64-40.29,7.35
				c-6.76,0.86-13.54,1.49-20.34,1.97c-3.41,0.23-6.82,0.43-10.26,0.57l-5.19,0.16l-2.64,0.05l-2.85,0l-15.13,0.02l-1.67-15.73
				c-1.16-10.97-3.16-21.8-6.03-32.36c-2.89-10.54-6.65-20.8-11.3-30.55c-1.2-2.42-2.35-4.86-3.67-7.21
				c-1.24-2.39-2.62-4.7-3.98-7.01c-2.81-4.56-5.74-9.05-8.98-13.25l-1.19-1.6l-1.25-1.54c-0.84-1.02-1.65-2.07-2.51-3.08
				c-1.74-1.98-3.45-3.99-5.3-5.86c-1.77-1.95-3.71-3.7-5.57-5.53c-1.95-1.72-3.86-3.5-5.89-5.1
				c-16.02-13.14-35.18-21.48-54.93-22.46c-4.95-0.2-9.95-0.16-14.96,0.41c-5.01,0.58-10.02,1.5-15.01,2.79
				c-9.96,2.64-19.74,6.69-29.05,11.82l9.09-15.53l0.09,86.27l0.25,86.27l0.62,172.54l-8.37-14.92
				c42.11,25.84,87.48,46.25,134.85,59.61c47.34,13.39,96.62,19.74,145.66,18.33c24.51-0.76,48.96-3.33,72.97-8.06
				c24.01-4.69,47.64-11.28,70.37-20.07c22.73-8.76,44.62-19.58,65.01-32.55c20.38-12.97,39.28-28.11,55.67-45.38
				c16.42-17.22,30.15-36.73,39.95-57.79c0.65-1.3,1.19-2.64,1.77-3.97l1.72-3.99l3-8.16l0.75-2.04l0.38-1.02l0.31-1.05l1.24-4.19
				l1.25-4.18l0.63-2.09l0.49-2.14l1.98-8.54c0.38-1.41,0.54-2.88,0.8-4.32l0.74-4.34l0.74-4.34c0.21-1.46,0.34-2.93,0.51-4.39
				l0.97-8.79l0.5-8.87c0.07-1.48,0.21-2.95,0.22-4.44l0.01-4.46c-0.01-2.97,0.08-5.94-0.01-8.92l-0.42-8.94
				c-0.09-1.49-0.08-2.98-0.25-4.47l-0.43-4.47c-0.3-2.98-0.52-5.96-0.89-8.94l-1.28-8.92c-0.22-1.49-0.4-2.98-0.65-4.46l-0.84-4.44
				c-4.38-23.69-11.23-47.09-20.47-69.63c-9.17-22.57-20.38-44.39-33.27-65.21c-12.89-20.83-27.46-40.69-43.47-59.34
				c-31.99-37.34-69.45-70.05-110.54-97.3l10.1,3.02l-822.73,3.37l10.13-3.11c-40.9,27.51-78.12,60.45-109.85,97.99
				c-15.88,18.75-30.31,38.69-43.05,59.59c-12.74,20.9-23.81,42.78-32.82,65.39c-9.09,22.58-15.78,46.01-19.99,69.7l-0.81,4.44
				c-0.24,1.48-0.41,2.97-0.62,4.46l-1.22,8.92c-0.34,2.98-0.54,5.96-0.83,8.94l-0.4,4.47c-0.16,1.49-0.14,2.98-0.22,4.47
				l-0.36,8.93c-0.07,2.98,0.04,5.94,0.05,8.91l0.04,4.45c0.02,1.48,0.17,2.95,0.25,4.43l0.56,8.85l1.03,8.77
				c0.18,1.46,0.32,2.93,0.54,4.38l0.77,4.33l0.76,4.33c0.28,1.44,0.45,2.9,0.83,4.31l2.03,8.52l0.5,2.13l0.64,2.08l1.27,4.17
				l1.26,4.17l0.32,1.04l0.38,1.01l0.77,2.03l3.05,8.12l1.74,3.97c0.58,1.32,1.13,2.66,1.79,3.95
				c9.92,20.95,23.75,40.33,40.26,57.41c16.48,17.13,35.45,32.12,55.88,44.93c20.45,12.82,42.38,23.48,65.14,32.08
				c22.76,8.63,46.4,15.06,70.41,19.6c24.01,4.57,48.45,6.98,72.94,7.6c48.99,1.11,98.18-5.54,145.39-19.21
				c47.24-13.64,92.43-34.31,134.34-60.38l-8.53,15.43l-0.89-345.08l9.32,15.7c-9.3-5.09-19.08-9.12-29.03-11.74
				c-4.98-1.28-9.99-2.19-14.99-2.76c-5.01-0.56-10-0.6-14.95-0.39c-19.76,1.01-38.91,9.46-54.9,22.67
				c-16.03,13.22-28.9,30.92-37.98,50.51c-4.53,9.82-8.17,20.11-10.92,30.68c-2.7,10.59-4.53,21.44-5.51,32.39l-1.42,15.86
				l-15.73,0.38l-0.01,0l-2.86,0.07l-2.64,0.02c-1.75,0-3.48-0.02-5.2-0.06c-3.45-0.07-6.87-0.22-10.28-0.41
				c-6.83-0.39-13.62-0.99-20.4-1.8c-13.55-1.62-27.04-3.98-40.38-7.32c-13.34-3.32-26.55-7.58-39.4-13.03
				c-12.83-5.5-25.32-12.26-36.87-20.69c-5.78-4.18-11.27-8.87-16.38-13.98c-5.11-5.1-9.83-10.65-13.97-16.61
				c-4.13-5.96-7.8-12.27-10.65-18.92c-2.88-6.63-5-13.54-6.49-20.49c-2.88-13.96-2.82-28.08-0.74-41.52
				C1626.71,2216.55,1630.72,2203.7,1636.34,2191.7z"/>
		</g>
	</g>
</g>
<g>
	<g>
		<g>
			<path d="M2015.07,2315.73l-2.94-1.83c-1.11-0.66-2.24-1.35-3.38-2.01c-2.28-1.34-4.62-2.62-6.96-3.84
				c-4.7-2.43-9.45-4.63-14.21-6.36c-9.51-3.51-18.87-5.23-27.09-3.65c-4.13,0.8-8.1,2.44-11.91,5.13
				c-3.78,2.7-7.44,6.35-10.76,10.69c-3.31,4.35-6.4,9.28-9.25,14.56c-2.87,5.28-5.53,10.87-8.38,16.64
				c-1.16-6.32-1.54-12.73-1.25-19.24c0.33-6.5,1.4-13.1,3.52-19.68c2.15-6.55,5.43-13.13,10.33-19.02
				c4.89-5.85,11.43-10.94,18.83-14.18c3.68-1.65,7.53-2.85,11.4-3.66c3.87-0.83,7.75-1.25,11.56-1.37c7.64-0.26,15,0.69,21.98,2.27
				c6.98,1.62,13.62,3.87,19.96,6.63c3.17,1.39,6.27,2.89,9.3,4.54c1.51,0.83,3.03,1.68,4.52,2.6l2.26,1.42l1.16,0.76l1.35,0.93
				L2015.07,2315.73z"/>
		</g>
	</g>
</g>
<g>
	<g>
		<g>
			<path d="M1854.53,2331.18c-2.27,8.83-4.44,17.75-6.03,26.9c-1.59,9.15-2.74,18.49-3.23,28.03c-0.26,4.77-0.36,9.58-0.32,14.44
				c0.06,4.85,0.28,9.75,0.62,14.69c0.73,9.88,2.13,19.86,3.92,30.13c-6.61-8.06-12.13-17.07-16.7-26.64
				c-4.61-9.56-8.18-19.74-10.73-30.25c-2.58-10.51-4.02-21.39-4.38-32.35c-0.33-10.96,0.48-22.04,2.74-32.86L1854.53,2331.18z"/>
		</g>
	</g>
</g>
<g class="st4">
	<path d="M2025.92,2573.12c-34.74,24.04-173.99,114.39-349.01,81.07c-49.74-9.47-202.93-38.63-259.74-170.93
		c-38.87-90.5-11.14-179.21-0.28-209.13c2.31,26.45,16.55,158.56,126.23,238.75c126.93,92.8,322.67,73.83,372.57-6.96
		c34.27-55.48-1.51-138.1,44.51-166.01c18.24-11.06,40.3-8.05,55-4.33L2025.92,2573.12z"/>
	<path d="M1754.51,2662.01c-26.08,0-52-2.44-77.69-7.33c-50.25-9.57-203.19-38.68-260.11-171.22c-36-83.82-15.64-167.23-0.29-209.49
		l0.77-2.12l0.2,2.25c3.2,36.65,21.75,162.15,126.03,238.39c85.25,62.33,190.89,69.82,261.33,56.04
		c52.58-10.28,91.83-32.61,110.52-62.86c15.66-25.36,16.61-55.89,17.53-85.42c1.04-33.69,2.03-65.52,27.15-80.75
		c14.2-8.61,32.84-10.09,55.38-4.39l0.36,0.09l0.02,0.37l10.73,237.8l-0.23,0.16c-36.96,25.58-79.16,47.06-122.02,62.11
		C1854.14,2653.2,1804.05,2662.01,1754.51,2662.01z M1416.59,2276.43c-15.19,42.75-34.24,124.5,1.03,206.63
		c56.71,132.05,209.25,161.09,259.38,170.63c163.69,31.16,298.01-46.01,348.4-80.83l-10.69-236.88
		c-22.12-5.53-40.37-4.06-54.26,4.37c-24.66,14.95-25.63,46.51-26.67,79.93c-0.92,29.66-1.87,60.33-17.67,85.91
		c-18.84,30.5-58.32,52.98-111.17,63.32c-41.58,8.13-87.19,7.84-131.89-0.84c-48.54-9.43-93.57-28.58-130.22-55.38
		c-46.45-33.96-81.3-80.99-103.56-139.76C1424.5,2334.54,1418.77,2299.57,1416.59,2276.43z"/>
</g>
<g>
	<g>
		<g>
			<path d="M2015.89,2286.42l1.34-0.94l1.15-0.76l2.25-1.43c1.49-0.93,3-1.78,4.51-2.63c3.03-1.67,6.12-3.18,9.28-4.59
				c6.32-2.8,12.95-5.09,19.92-6.76c6.97-1.62,14.32-2.62,21.96-2.41c3.82,0.1,7.7,0.49,11.57,1.3c3.87,0.79,7.73,1.96,11.42,3.59
				c7.42,3.19,13.99,8.24,18.92,14.06c4.93,5.86,8.25,12.43,10.44,18.96c2.17,6.56,3.28,13.16,3.64,19.65
				c0.33,6.51-0.01,12.92-1.13,19.25c-2.88-5.74-5.57-11.33-8.48-16.58c-2.89-5.26-6.01-10.17-9.34-14.5
				c-3.34-4.32-7.02-7.94-10.82-10.62c-3.83-2.67-7.81-4.28-11.94-5.05c-8.23-1.54-17.58,0.25-27.06,3.81
				c-4.74,1.76-9.48,4-14.17,6.45c-2.34,1.24-4.66,2.53-6.94,3.89c-1.14,0.66-2.26,1.36-3.37,2.03l-2.93,1.85L2015.89,2286.42z"/>
		</g>
	</g>
</g>
<g>
	<g>
		<g>
			<path d="M2230.8,2321.32c2.33,10.8,3.2,21.87,2.94,32.84c-0.29,10.97-1.66,21.85-4.18,32.38c-2.48,10.53-5.98,20.73-10.54,30.32
				c-4.5,9.6-9.97,18.65-16.53,26.74c1.73-10.27,3.07-20.27,3.74-30.15c0.31-4.94,0.5-9.84,0.53-14.69
				c0.01-4.86-0.12-9.67-0.41-14.44c-0.55-9.53-1.75-18.87-3.4-28.01c-1.65-9.15-3.87-18.05-6.2-26.86L2230.8,2321.32z"/>
		</g>
	</g>
</g>
<g class="st4">
	<path d="M2026.86,2572.43c34.88,23.83,174.7,113.31,349.5,78.92c49.68-9.77,202.68-39.88,258.69-172.52
		c38.31-90.74,10.04-179.27-1.01-209.12c-2.15,26.46-15.57,158.66-124.76,239.53c-126.36,93.58-322.21,75.81-372.6-4.67
		c-34.61-55.27,0.66-138.11-45.53-165.73c-18.31-10.95-40.35-7.8-55.03-3.99L2026.86,2572.43z"/>
	<path d="M2296.23,2659.66c-48.7,0-97.97-8.5-147.26-25.46c-42.95-14.78-85.28-36-122.4-61.35l-0.23-0.16l9.28-238.23l0.36-0.09
		c22.51-5.84,41.15-4.47,55.41,4.05c25.21,15.08,26.4,46.9,27.65,80.58c1.1,29.52,2.23,60.05,18.05,85.31
		c18.87,30.14,58.26,52.22,110.9,62.18c70.52,13.34,176.12,5.2,260.98-57.65c100.98-74.78,120.75-192.17,124.56-239.16l0.18-2.25
		l0.78,2.12c15.6,42.16,36.48,125.45,1,209.49c-56.11,132.89-208.86,162.94-259.05,172.82
		C2349.95,2657.06,2323.18,2659.66,2296.23,2659.66z M2027.37,2572.18c50.6,34.51,185.4,110.86,348.89,78.69
		c50.07-9.85,202.42-39.82,258.32-172.22c34.77-82.34,15.21-163.98-0.24-206.63c-2.04,23.16-7.55,58.16-22.08,97.24
		c-21.9,58.91-56.45,106.14-102.69,140.39c-36.49,27.02-81.4,46.45-129.88,56.18c-44.65,8.96-90.25,9.53-131.89,1.66
		c-52.92-10.01-92.54-32.25-111.56-62.63c-15.96-25.49-17.1-56.15-18.2-85.8c-1.24-33.41-2.41-64.96-27.16-79.76
		c-13.94-8.34-32.2-9.7-54.28-4.03L2027.37,2572.18z"/>
</g>
<g class="st4">
	<path d="M1849.19,2295.84c0,0-193.72,17.08-222.35-79.52c0,0-34.58,141.81,205.5,150.25L1849.19,2295.84z"/>
</g>
<g class="st4">
	<path d="M2196.24,2299.15c0,0,193.73,17.03,222.33-79.58c0,0,34.62,141.8-205.46,150.3L2196.24,2299.15z"/>
</g>
<g class="st4">
	<path d="M2568.17,2585.24c-33.77,29.96-111.39,90.48-228.05,112.38c-124.55,23.38-227.32-9.7-282.22-33.88
		c-19.82-8.73-42.47-8.21-61.88,1.39c-60.17,29.76-191.68,79.28-341.06,32.88c-103.06-32.01-168.35-95.31-198.77-129.43l23.38-0.07
		c30.97,23.2,129.23,90.64,271.97,90.87c145.32,0.23,245.06-69.34,275.62-92.52c38.36,25.83,140.71,87.3,284.5,87.5
		C2436.05,2654.53,2527.65,2608.74,2568.17,2585.24z"/>
</g>
<g class="st4">
	<path d="M1730.86,3032.03c0,0,125.28-23.4,49.09-101.26c63.11,14.64,143.03,27.58,235.88,29.56
		c96.08,2.05,178.98-8.22,244.06-20.85c-10.91,3.48-19.54,9.6-25.81,17.09c-10.36,12.35-16.31,31.98-9.39,49.67
		c8.13,20.81,32.28,34.04,58.11,29.98c-22.19-1.18-45.58-3.24-70.04-6.46c-56.44-7.43-106.75-19.46-150.14-32.89l-116.69,2.02
		c-30.37,10.44-67.93,20.68-111.61,27.01C1795.39,3031.52,1760.38,3032.77,1730.86,3032.03z"/>
</g>
<g>
	<path class="st1" d="M2535.42,2010.7c-98.75,52.47-273.03,91.25-485.94,93.85c-181.93,2.22-332.7-31.6-438.99-65.36
		c-55.69-17.69-108.63-43.23-156.49-76.76c-299.2-209.58-160.04-536.6-108.21-635.3c10.2-19.42,12.17-42.1,5.62-63.03
		c-227.92-728.17,227.35-455.77,356.2-367.6c20.66,14.14,46.58,18.18,70.54,10.93c63.76-19.3,150.18-37.71,253.18-38.56
		c105.21-0.87,193.5,16.87,258.14,35.62c23.02,6.68,47.79,2.86,67.88-10.21c14.61-9.51,31.42-19.96,50.21-30.82
		c30.92-17.87,63.65-34.81,83.4-43.6c35.62-15.87,165.53-73.74,235.51-21.1c66.79,50.23,49.89,179.2,41.27,244.92
		c-4.9,37.36-14.01,71.2-25.65,114.38c-11.28,41.86-23.08,78.35-33.68,108.35c-7.75,21.91-5.93,46.05,5.06,66.53
		c19.81,36.86,39.26,83.64,54.38,138.9c27.5,100.52,37.46,232.2-32.67,356.82C2735.18,1828.66,2675.58,1936.23,2535.42,2010.7z"/>
	<path d="M2032.4,2122.15c-145.05,0-288.68-22.28-427.22-66.29c-58.65-18.63-112.89-45.24-161.23-79.1
		c-71.82-50.31-124.4-111.15-156.29-180.85c-26.73-58.42-39.14-123.44-36.9-193.27c3.94-122.51,51.51-230.3,79.52-283.64
		c8.06-15.35,9.63-32.99,4.41-49.66c-43.39-138.61-64.8-250.38-63.64-332.19c1.07-75.28,21.28-128.01,60.08-156.71
		c45.96-34,115.36-33.07,206.29,2.79c69.44,27.38,136.24,68.87,180.05,98.85c16.38,11.21,36.65,14.35,55.59,8.62
		c83.8-25.36,170.64-38.59,258.11-39.31c89.02-0.71,177.57,11.48,263.16,36.31c18.05,5.24,37.53,2.29,53.46-8.07
		c16.64-10.83,33.8-21.36,51-31.3c30.05-17.37,63.43-34.81,85.03-44.44c18.21-8.11,60.85-27.11,108.3-37.36
		c62.15-13.43,110.89-7.29,144.86,18.26c33.09,24.88,51.88,68.45,55.86,129.5c3.16,48.45-3.41,98.54-7.75,131.68
		c-5.05,38.51-14.33,72.98-26.09,116.63c-9.94,36.91-21.41,73.79-34.09,109.66c-6.1,17.25-4.65,36.35,3.98,52.41
		c22.45,41.79,41.76,91.09,55.84,142.57c16.45,60.13,23.47,118.95,20.88,174.8c-3.27,70.27-21.83,135.95-55.17,195.19
		c-1.14,2.03-16.76,29.6-49.54,66.21c-30.53,34.09-82.59,83.05-157.27,122.72c-51.8,27.52-122.66,50.8-204.93,67.33
		c-88.05,17.69-185.29,27.3-289.01,28.56C2043.93,2122.11,2038.15,2122.15,2032.4,2122.15z M1414.87,790.61
		c-25.66,0-46.78,6.02-62.91,17.95c-46.23,34.21-80.96,140.1,16.14,450.31c8.02,25.61,5.59,52.74-6.82,76.39
		c-48.7,92.76-185.23,411.1,102.76,612.83c45.43,31.82,96.48,56.85,151.74,74.41c140.47,44.62,286.29,66.36,433.48,64.54
		c195.56-2.38,374.23-36.7,477.94-91.8l8.21,15.45l-8.21-15.45c69.66-37.01,118.29-82.57,146.82-114.28
		c31.04-34.49,45.71-60.55,45.86-60.81c55.88-99.29,66.32-214.9,31.09-343.7c-13.4-48.98-31.69-95.74-52.91-135.24
		c-13.28-24.73-15.52-54.12-6.15-80.64c12.38-35.02,23.58-71.05,33.29-107.06c11.43-42.42,20.45-75.9,25.19-112.1
		c7.85-59.91,24.19-184.56-34.44-228.66c-25.48-19.16-64.66-23.21-116.43-12.02c-43.91,9.49-84.23,27.45-101.45,35.12
		c-20.27,9.03-53.12,26.22-81.76,42.77c-16.67,9.64-33.3,19.84-49.43,30.34c-24.47,15.92-54.46,20.43-82.3,12.35
		c-82.32-23.89-167.52-35.63-253.12-34.93c-84.13,0.7-167.66,13.42-248.26,37.81c-29.15,8.82-60.31,4-85.49-13.24
		c-34.65-23.71-103.22-67.6-173.12-95.17c-36.98-14.58-69.97-22.92-98.04-24.77C1422.56,790.74,1418.66,790.61,1414.87,790.61z"/>
</g>
<g>
	<path class="st6" d="M1424.37,1098.05c-32.77-116.28-61.66-306.72,165.74-143.52c21.75,15.61,22.14,47.92,0.76,64.03
		c-17.62,13.27-36.23,28.93-54.96,47.32c-15.95,15.65-29.96,31.29-42.23,46.41C1473.29,1137.41,1433.14,1129.19,1424.37,1098.05z"/>
	<path d="M1462.76,1144.59c-3.87,0-7.78-0.39-11.68-1.2c-21.04-4.34-37.73-19.9-43.56-40.59v0
		c-13.04-46.28-20.58-86.37-22.39-119.16c-2.72-49.04,7.81-82.25,31.3-98.72c18.34-12.86,43.11-14.64,73.62-5.28
		c30.22,9.27,66.29,29.12,110.26,60.67c14.95,10.73,23.64,27.44,23.85,45.86c0.21,18.41-8.09,35.31-22.77,46.37
		c-18.66,14.05-36.57,29.47-53.23,45.83c-14.41,14.14-28.17,29.27-40.9,44.95C1496.19,1136.96,1479.84,1144.59,1462.76,1144.59z
		 M1441.21,1093.31c2.31,8.19,8.64,14.1,16.95,15.81c8.34,1.73,16.54-1.21,21.93-7.85c13.56-16.7,28.21-32.81,43.56-47.87
		c17.75-17.42,36.82-33.84,56.69-48.81c5.69-4.29,8.91-10.85,8.83-18.01c-0.08-7.17-3.46-13.66-9.26-17.83
		c-40.27-28.9-73.95-47.62-100.12-55.65c-19.66-6.03-34.21-5.87-43.26,0.47c-12.55,8.8-18.4,33-16.45,68.13
		C1421.75,1011.94,1428.86,1049.49,1441.21,1093.31z"/>
</g>
<g>
	<path class="st6" d="M2641.11,1105.84c37.53-114.83,74.22-303.93-159.7-150.21c-22.38,14.7-24.1,46.97-3.39,63.94
		c17.06,13.99,35.01,30.39,52.97,49.54c15.29,16.3,28.64,32.5,40.28,48.11C2590.61,1143.15,2631.06,1136.59,2641.11,1105.84z"/>
	<path d="M2603.19,1150.81c-17.94,0-34.96-8.4-45.95-23.13c-12.08-16.2-25.2-31.87-39.01-46.59c-15.97-17.02-33.23-33.17-51.3-47.98
		c-14.21-11.65-21.81-28.88-20.84-47.26c0.97-18.39,10.34-34.74,25.72-44.84c45.23-29.72,82.09-48.07,112.67-56.09
		c30.87-8.09,55.54-5.3,73.34,8.3c22.79,17.42,31.95,51.04,27.22,99.93c-3.16,32.68-12.34,72.43-27.28,118.13h0
		c-6.68,20.44-24,35.3-45.2,38.77C2609.42,1150.56,2606.29,1150.81,2603.19,1150.81z M2616.32,915.36c-6.61,0-14.28,1.14-22.97,3.42
		c-26.47,6.94-60.9,24.26-102.32,51.48c-5.97,3.92-9.61,10.28-9.99,17.43c-0.38,7.15,2.57,13.83,8.08,18.35
		c19.24,15.77,37.62,32.96,54.64,51.1c14.71,15.68,28.69,32.37,41.55,49.62c5.11,6.85,13.18,10.12,21.58,8.75
		c8.37-1.37,14.94-7.02,17.59-15.1l0,0c14.14-43.27,22.79-80.5,25.71-110.63c3.39-35.02-1.45-59.44-13.63-68.75
		C2631.61,917.25,2624.84,915.36,2616.32,915.36z"/>
</g>
<g>
	<ellipse class="st5" cx="2028.03" cy="1707.27" rx="326.15" ry="210.46"/>
</g>
<g>
	<g>
		<path d="M1931.06,1565.91c-6.49,29.74,49.15,81.94,106.23,80.25c52.96-1.56,104.24-49.43,98.04-78.48
			c-7.19-33.67-90.55-37.15-96.53-37.35C2003.34,1529.14,1937.41,1536.79,1931.06,1565.91z"/>
	</g>
	<g>
		<path d="M2033.33,1649.47c1.35,0.02,2.7,0.01,4.05-0.03c38.32-1.13,73.4-25.23,89.77-47.14c9.43-12.62,13.43-25.17,11.26-35.34
			c-7.64-35.8-90.12-39.6-99.5-39.91c-28.32-0.94-103.48,4.05-110.91,38.13c-2.34,10.71,2.26,24.08,12.95,37.64
			C1958.67,1625.32,1994.75,1648.97,2033.33,1649.47z M2034.12,1533.5c1.55,0.02,3.07,0.06,4.58,0.11
			c30.01,1.01,88.18,9.58,93.57,34.79c1.76,8.22-1.82,18.83-10.08,29.88c-15.5,20.73-48.7,43.54-84.98,44.61
			c-37.97,1.13-74-22.14-91.4-44.22c-9.29-11.79-13.55-23.47-11.68-32.03l0,0C1939.38,1542.55,1994.23,1532.98,2034.12,1533.5z"/>
	</g>
</g>
<g>
	<g>
		<path class="st3" d="M1988.85,1559.09c0.24,4.1,89.49,4.35,89.75,0.28c0.13-2.03-21.77-6.63-45.86-6.82
			C2010.25,1552.56,1988.73,1557.06,1988.85,1559.09z"/>
	</g>
</g>
<g class="st2">
	<path class="st3" d="M1307.65,881c0,0,27.32-102.42,166.94-47.15c85.51,33.85,164.26,83.93,212.44,117.66
		c29.99,20.99,68.17,26.57,102.91,15.03c88.94-29.55,278.64-72.27,503.32-2.52c31.79,9.87,66.35,4.75,93.99-13.78
		c96.04-64.38,318.84-196.74,362.27-71.43c0,0,3.21-166.75-213.12-77.61c-216.32,89.13-174.62,117.6-300.22,89.61
		c-125.6-27.99-353.38-25-491.36,19.62C1744.82,910.42,1347.72,632.6,1307.65,881z"/>
</g>
<g>
	<path d="M2032.4,2122.15c-145.05,0-288.68-22.28-427.22-66.29c-58.65-18.63-112.89-45.24-161.23-79.1
		c-71.82-50.31-124.4-111.15-156.29-180.85c-26.73-58.42-39.14-123.44-36.9-193.27c3.94-122.51,51.51-230.3,79.52-283.64
		c8.06-15.35,9.63-32.99,4.41-49.66c-43.39-138.61-64.8-250.38-63.64-332.19c1.07-75.28,21.28-128.01,60.08-156.71
		c45.96-34,115.36-33.07,206.29,2.79c69.44,27.38,136.24,68.87,180.05,98.85c16.38,11.21,36.65,14.35,55.59,8.62
		c83.8-25.36,170.64-38.59,258.11-39.31c89.02-0.71,177.57,11.48,263.16,36.31c18.05,5.24,37.53,2.29,53.46-8.07
		c16.64-10.83,33.8-21.36,51-31.3c30.05-17.37,63.43-34.81,85.03-44.44c18.21-8.11,60.85-27.11,108.3-37.36
		c62.15-13.43,110.89-7.29,144.86,18.26c33.09,24.88,51.88,68.45,55.86,129.5c3.16,48.45-3.41,98.54-7.75,131.68
		c-5.05,38.51-14.33,72.98-26.09,116.63c-9.94,36.91-21.41,73.79-34.09,109.66c-6.1,17.25-4.65,36.35,3.98,52.41
		c22.45,41.79,41.76,91.09,55.84,142.57c16.45,60.13,23.47,118.95,20.88,174.8c-3.27,70.27-21.83,135.95-55.17,195.19
		c-1.14,2.03-16.76,29.6-49.54,66.21c-30.53,34.09-82.59,83.05-157.27,122.72c-51.8,27.52-122.66,50.8-204.93,67.33
		c-88.05,17.69-185.29,27.3-289.01,28.56C2043.93,2122.11,2038.15,2122.15,2032.4,2122.15z M1414.87,790.61
		c-25.66,0-46.78,6.02-62.91,17.95c-46.23,34.21-80.96,140.1,16.14,450.31c8.02,25.61,5.59,52.74-6.82,76.39
		c-48.7,92.76-185.23,411.1,102.76,612.83c45.43,31.82,96.48,56.85,151.74,74.41c140.47,44.62,286.29,66.36,433.48,64.54
		c195.56-2.38,374.23-36.7,477.94-91.8l8.21,15.45l-8.21-15.45c69.66-37.01,118.29-82.57,146.82-114.28
		c31.04-34.49,45.71-60.55,45.86-60.81c55.88-99.29,66.32-214.9,31.09-343.7c-13.4-48.98-31.69-95.74-52.91-135.24
		c-13.28-24.73-15.52-54.12-6.15-80.64c12.38-35.02,23.58-71.05,33.29-107.06c11.43-42.42,20.45-75.9,25.19-112.1
		c7.85-59.91,24.19-184.56-34.44-228.66c-25.48-19.16-64.66-23.21-116.43-12.02c-43.91,9.49-84.23,27.45-101.45,35.12
		c-20.27,9.03-53.12,26.22-81.76,42.77c-16.67,9.64-33.3,19.84-49.43,30.34c-24.47,15.92-54.46,20.43-82.3,12.35
		c-82.32-23.89-167.52-35.63-253.12-34.93c-84.13,0.7-167.66,13.42-248.26,37.81c-29.15,8.82-60.31,4-85.49-13.24
		c-34.65-23.71-103.22-67.6-173.12-95.17c-36.98-14.58-69.97-22.92-98.04-24.77C1422.56,790.74,1418.66,790.61,1414.87,790.61z"/>
</g>
<g class="st4">
	<path d="M2614.75,897.89c0,0,7.63,107.19-34.3,218.6l-107.78-117.1l-8.53-31.77L2614.75,897.89z"/>
</g>
<g class="st4">
	<path d="M1458.81,890.58c0,0-17.01,106.11,14.98,220.77l117.65-107.19l11.29-30.9L1458.81,890.58z"/>
</g>
<g class="st4">
	<path d="M2780.28,1526.95c-5.39,56.95-21.42,140.99-73.28,224.05c-173.38,277.67-577.39,272.36-681,271
		c-45.47-0.6-588.68-14.17-720-338c-24-59.18-28.82-115.08-28.21-157.05c0,0-134.88,560.96,746.17,579.51
		C2905,2125,2780.28,1526.95,2780.28,1526.95z"/>
</g>
<g>
	<path d="M1668,1393c3.68,5.19,7.32,10.09,11.15,14.66c3.84,4.57,7.84,8.8,11.99,12.73c8.29,7.85,17.25,14.4,26.61,19.68
		c18.76,10.54,39.23,15.96,59.74,15.93c20.5,0.01,40.96-5.42,59.71-15.97c9.36-5.29,18.31-11.82,26.61-19.67
		c4.15-3.92,8.17-8.15,12.01-12.71c3.84-4.57,7.49-9.46,11.18-14.64c0.04,6.37-0.88,12.74-2.46,19.01
		c-1.58,6.27-3.84,12.45-6.75,18.37c-5.81,11.85-14.11,22.76-24.26,31.83c-10.13,9.11-22.12,16.38-35.1,21.3
		c-12.98,4.94-26.97,7.5-40.94,7.47c-13.97,0-27.95-2.57-40.93-7.51c-12.98-4.93-24.96-12.2-35.09-21.3
		c-10.15-9.07-18.45-19.97-24.25-31.82c-2.9-5.93-5.17-12.1-6.75-18.36C1668.89,1405.73,1667.97,1399.36,1668,1393z"/>
</g>
<g>
	<path d="M2181,1393c3.68,5.19,7.32,10.09,11.15,14.66c3.84,4.57,7.84,8.8,11.99,12.73c8.29,7.85,17.25,14.4,26.61,19.68
		c18.76,10.54,39.23,15.96,59.74,15.93c20.5,0.01,40.96-5.42,59.71-15.97c9.36-5.29,18.31-11.82,26.61-19.67
		c4.15-3.92,8.17-8.15,12.01-12.71c3.84-4.57,7.49-9.46,11.18-14.64c0.04,6.37-0.88,12.74-2.46,19.01
		c-1.58,6.27-3.84,12.45-6.75,18.37c-5.81,11.85-14.11,22.76-24.26,31.83c-10.13,9.11-22.12,16.38-35.1,21.3
		c-12.98,4.94-26.97,7.5-40.94,7.47c-13.97,0-27.95-2.57-40.93-7.51c-12.98-4.93-24.96-12.2-35.09-21.3
		c-10.15-9.07-18.45-19.97-24.25-31.82c-2.9-5.93-5.17-12.1-6.75-18.36C2181.89,1405.73,2180.97,1399.36,2181,1393z"/>
</g>
<g>
	<path d="M1846,1666c7.24,8.6,15.34,16.02,24.17,21.98c8.83,5.95,18.32,10.51,28.09,13.48c9.75,3.01,19.78,4.4,29.58,4.27
		c9.81-0.22,19.4-1.9,28.33-5.16c17.89-6.46,33.1-18.85,43.43-34.34c10.39-15.5,15.7-34,15.41-52.47l34.92,1.04
		c-0.68,9.38,0.13,18.84,2.44,27.96c1.15,4.56,2.65,9.04,4.53,13.36c1.84,4.34,4.08,8.52,6.61,12.52c5.06,8,11.46,15.17,18.86,21.17
		c7.43,5.96,15.89,10.7,25.04,13.91c9.14,3.21,18.97,4.89,29.01,4.91c5.02,0.03,10.08-0.43,15.13-1.25
		c5.05-0.8,10.08-2.05,15.02-3.71c4.97-1.61,9.82-3.69,14.54-6.13c4.75-2.41,9.29-5.3,13.71-8.48c8.78-6.43,16.72-14.38,23.68-23.55
		c-6.86,22.02-23.22,41.82-44.75,53.98c-5.39,3.03-11.08,5.6-16.99,7.7c-5.92,2.06-12.08,3.57-18.36,4.57
		c-12.56,1.97-25.69,1.58-38.4-1.29c-12.71-2.83-24.99-8.13-35.91-15.51c-10.94-7.36-20.48-16.79-28.17-27.55
		c-3.84-5.38-7.19-11.12-10.06-17.09c-2.83-5.99-5.18-12.22-6.96-18.62c-3.55-12.8-4.87-26.24-3.85-39.48l34.92,1.04
		c0.15,12.9-1.79,25.86-5.79,38.13c-2,6.13-4.48,12.11-7.47,17.81c-2.96,5.72-6.41,11.17-10.29,16.29
		c-7.73,10.26-17.19,19.17-27.85,26.24c-10.67,7.04-22.55,12.24-34.92,15.07c-12.36,2.85-25.14,3.39-37.41,1.6
		c-12.28-1.7-24.05-5.66-34.66-11.34C1870.39,1705.67,1853.86,1687.1,1846,1666z"/>
</g>
<g class="st4">
	<path d="M2513,2089c-103.54,37.43-269.77,83.49-478,82c-212.68-1.53-381.24-52.04-484.89-91.94l44.6-43.03
		c102.64,33.88,260.09,72.47,454.29,68.97c169.91-3.06,309-37.28,405-69L2513,2089z"/>
</g>
</svg>
