<svg width="1834" height="2600" viewBox="0 0 1834 2600" fill="none" xmlns="http://www.w3.org/2000/svg">
<path d="M577.263 1997.78C504.483 1989.93 372.703 1964.3 251.693 1867.25C51.7932 1706.93 18.5031 1461.74 17.5031 1322.51C17.0931 1265.5 65.1431 1220.1 122.053 1223.54C122.733 1223.58 123.403 1223.62 124.083 1223.66C177.313 1226.88 218.513 1271.76 216.883 1325.06C211.733 1493.27 278.973 1625.47 361.743 1723.4C390.393 1757.3 440.603 1798.3 534.263 1820.43C535.493 1841.65 538.193 1865.47 543.363 1891.23C551.873 1933.65 564.693 1969.45 577.263 1997.78Z" fill="#FFEDA3"/>
<path d="M605.573 2018.44L575.393 2015.18C487.253 2005.67 357.643 1974.65 240.753 1880.9C149.953 1808.08 83.573 1711.07 43.443 1592.58C8.40304 1489.11 0.483039 1388.68 0.0030395 1322.64C-0.226961 1290.22 12.6031 1260.07 36.1531 1237.74C59.4131 1215.68 91.093 1204.14 123.103 1206.08L125.133 1206.2C155.443 1208.03 183.443 1221.37 203.953 1243.76C224.493 1266.18 235.303 1295.25 234.373 1325.6C230.053 1466.47 277.403 1596.51 375.103 1712.11C412.063 1755.84 466.963 1786.55 538.273 1803.4L550.963 1806.4L551.713 1819.42C553.033 1842.33 555.993 1865.33 560.503 1887.78C567.573 1923.02 578.593 1957.64 593.253 1990.68L605.573 2018.44ZM115.933 1240.86C95.1131 1240.86 75.503 1248.67 60.243 1263.14C43.803 1278.73 34.843 1299.77 35.003 1322.39C35.953 1453.36 66.7931 1696.52 262.643 1853.6C360.583 1932.15 468.293 1964.06 549.663 1976.54C539.643 1949.89 531.773 1922.46 526.203 1894.68C522.223 1874.84 519.373 1854.59 517.693 1834.34C444.943 1815.11 388.033 1781.63 348.383 1734.71C301.443 1679.17 265.013 1619.42 240.103 1557.1C210.623 1483.37 196.933 1405.13 199.403 1324.54C200.753 1280.45 167.213 1243.82 123.033 1241.15L121.003 1241.03C119.303 1240.92 117.613 1240.86 115.933 1240.86Z" fill="black"/>
<g opacity="0.5">
<path d="M180.843 1425.01C189.833 1488.9 227.193 1695.63 399.273 1809.54C429.953 1829.85 461.123 1844.7 491.273 1855.54C486.393 1838.37 481.513 1821.2 476.633 1804.03C440.393 1785.19 384.253 1749.84 334.583 1687.75C304.563 1650.23 285.403 1613.56 273.083 1584.45C249.033 1534.2 237.073 1490.07 230.693 1458.24C219.663 1403.24 214.153 1375.74 219.243 1344.18C221.143 1332.39 224.903 1316.25 219.473 1296.18C217.953 1290.58 210.543 1265 188.703 1249.03C151.483 1221.82 94.6932 1238.77 94.7432 1239.58C94.7632 1239.93 116.703 1230.76 137.733 1240.79C164.303 1253.45 172.233 1287.43 174.463 1296.97C179.143 1317.02 175.443 1325.78 175.183 1355.97C175.023 1373.53 176.043 1397.03 180.843 1425.01Z" fill="white"/>
</g>
<path d="M605.573 2018.44L575.393 2015.18C487.253 2005.67 357.643 1974.65 240.753 1880.9C149.953 1808.08 83.573 1711.07 43.443 1592.58C8.40304 1489.11 0.483039 1388.68 0.0030395 1322.64C-0.226961 1290.22 12.6031 1260.07 36.1531 1237.74C59.4131 1215.68 91.093 1204.14 123.103 1206.08L125.133 1206.2C155.443 1208.03 183.443 1221.37 203.953 1243.76C224.493 1266.18 235.303 1295.25 234.373 1325.6C230.053 1466.47 277.403 1596.51 375.103 1712.11C412.063 1755.84 466.963 1786.55 538.273 1803.4L550.963 1806.4L551.713 1819.42C553.033 1842.33 555.993 1865.33 560.503 1887.78C567.573 1923.02 578.593 1957.64 593.253 1990.68L605.573 2018.44ZM115.933 1240.86C95.1131 1240.86 75.503 1248.67 60.243 1263.14C43.803 1278.73 34.843 1299.77 35.003 1322.39C35.953 1453.36 66.7931 1696.52 262.643 1853.6C360.583 1932.15 468.293 1964.06 549.663 1976.54C539.643 1949.89 531.773 1922.46 526.203 1894.68C522.223 1874.84 519.373 1854.59 517.693 1834.34C444.943 1815.11 388.033 1781.63 348.383 1734.71C301.443 1679.17 265.013 1619.42 240.103 1557.1C210.623 1483.37 196.933 1405.13 199.403 1324.54C200.753 1280.45 167.213 1243.82 123.033 1241.15L121.003 1241.03C119.303 1240.92 117.613 1240.86 115.933 1240.86Z" fill="black"/>
<g opacity="0.25">
<path d="M66.263 1604.63C87.273 1659.13 154.073 1810.8 319.313 1911.88C421.413 1974.34 519.533 1992.07 577.263 1997.78L557.823 1938.5C409.113 1908.83 307.943 1848.05 238.403 1775.7C238.403 1775.7 82.5831 1620.37 72.4131 1353.78C69.8631 1286.84 89.973 1264.51 101.263 1255.55C120.813 1240.03 145.583 1239.46 160.263 1240.55C149.193 1237.33 81.5431 1218.62 42.6031 1255.04C24.5831 1271.89 15.3231 1298.11 19.1731 1372C22.0131 1426.32 31.973 1507.18 66.263 1604.63Z" fill="black"/>
</g>
<path d="M1054.33 2235.93C1042.33 2251.8 1026.4 2275.73 1012.87 2307.32C1002.17 2332.32 987.373 2367.87 987.363 2415.76C987.353 2435.88 987.823 2475.05 1011.41 2513.5C1012.53 2515.33 1013.41 2516.67 1013.59 2516.95C1022.84 2531.21 1053.94 2574.36 1103.02 2579.45C1166.14 2586 1237.76 2527.39 1267.82 2429.19C1281.51 2431.67 1486.91 2465.65 1608.43 2330.82C1727.12 2199.12 1719.22 1958.04 1555.31 1792.71L519.963 1794.92C356.353 1960.55 348.893 2201.64 467.823 2333.12C589.593 2467.73 794.933 2433.37 808.613 2430.87C810.063 2436.16 840.163 2541.32 909.473 2570.6C921.273 2575.59 944.873 2585.56 973.683 2580.83C992.973 2577.66 1008.88 2568.84 1015.31 2565.28C1027.85 2558.34 1038.12 2548.99 1038.23 2548.88C1038.45 2548.67 1038.6 2548.54 1038.6 2548.54C1016.52 2521.34 1013.5 2516.94 1013.5 2516.94C1000.53 2498.1 995.433 2480.41 992.523 2470.33C987.813 2453.99 983.453 2426.94 988.933 2386.99C998.243 2319.21 1030.21 2267.32 1054.33 2235.93Z" fill="#FFEDA3"/>
<path d="M958.313 2599.59C933.093 2599.59 913.233 2591.2 902.663 2586.73C869.983 2572.93 841.553 2543.75 818.163 2500C807.853 2480.73 800.723 2462.51 796.483 2450.37C773.833 2453.22 729.093 2456.88 676.723 2450.81C635.773 2446.06 597.723 2436.24 563.623 2421.64C521.003 2403.39 484.403 2377.56 454.843 2344.88C423.733 2310.49 400.593 2269.16 386.063 2222.03C371.823 2175.85 366.583 2126.56 370.493 2075.51C378.733 1967.76 427.393 1863.75 507.513 1782.64L512.633 1777.45L1562.59 1775.21L1567.74 1780.4C1648.01 1861.36 1696.86 1965.28 1705.3 2073.02C1709.3 2124.06 1704.15 2173.36 1689.99 2219.56C1675.54 2266.72 1652.48 2308.1 1621.43 2342.54C1591.93 2375.28 1555.37 2401.17 1512.79 2419.5C1478.71 2434.17 1440.67 2444.05 1399.74 2448.88C1347.24 2455.07 1302.39 2451.45 1279.79 2448.64C1247.84 2537.49 1180.53 2597.46 1112.89 2597.46C1108.99 2597.46 1105.1 2597.26 1101.21 2596.86C1076.32 2594.28 1055.52 2583.5 1039.05 2570.7C1034.75 2573.88 1029.49 2577.44 1023.79 2580.6C1016.95 2584.39 998.793 2594.45 976.513 2598.11C970.203 2599.14 964.113 2599.59 958.313 2599.59ZM821.243 2410.78L825.483 2426.25C825.763 2427.27 854.093 2528.21 916.283 2554.49C927.023 2559.03 947.023 2567.48 970.853 2563.57C987.143 2560.89 1000.94 2553.25 1006.83 2549.99C1009.13 2548.72 1011.35 2547.34 1013.42 2545.96C1007.71 2539.23 1003.21 2532.98 999.973 2528.11C999.463 2527.42 999.203 2527.06 999.083 2526.89C984.503 2505.7 978.773 2485.86 975.703 2475.2C968.263 2449.41 966.883 2418.93 971.593 2384.63C979.223 2329.09 1003.03 2273.99 1040.44 2225.28L1068.28 2246.5C1052.47 2267.42 1039.23 2290.2 1028.95 2314.23C1019.36 2336.63 1004.87 2370.49 1004.85 2415.78C1004.84 2433.17 1004.83 2469.34 1026.32 2504.37C1027.23 2505.85 1027.96 2506.97 1028.2 2507.35L1028.27 2507.46C1028.38 2507.63 1028.5 2507.81 1028.62 2507.99C1030.27 2510.17 1034.85 2516.09 1046.29 2530.26C1060.08 2544.68 1079.95 2559.49 1104.82 2562.07C1131.19 2564.79 1160.09 2553.6 1186.22 2530.51C1214.75 2505.3 1237.78 2467.51 1251.08 2424.09L1255.63 2409.22L1270.93 2411.99C1279.38 2413.52 1479.29 2447.99 1595.43 2319.13C1714.08 2187.49 1692.39 1960.62 1547.95 1810.25L527.363 1812.42C383.173 1963.04 361.903 2189.96 480.793 2321.4C597.163 2450.05 797.013 2415.22 805.463 2413.67L821.243 2410.78Z" fill="black"/>
<path d="M780.513 2432.51C780.513 2432.51 791.333 2431.07 806.923 2425.84C821.293 2421.02 864.643 2406.28 893.213 2362.46C922.623 2317.36 917.453 2270.41 915.613 2257.59C954.903 2250.39 994.203 2243.18 1033.49 2235.98L1038.38 2261.26C1038.38 2261.26 940.813 2427.82 1038.23 2548.88C1038.23 2548.88 903.583 2670.64 814.333 2451.69L780.513 2432.51Z" fill="#864000"/>
<path d="M1307.19 2434.36C1307.19 2434.36 1162.51 2402.33 1148.04 2258.79L1046.4 2233.04C1046.4 2233.04 914.433 2468.1 1061.5 2564.96C1061.5 2564.96 1152.6 2623.84 1241.81 2490.94L1254.56 2434.96L1307.19 2434.36Z" fill="#864000"/>
<path d="M958.313 2599.51C933.093 2599.51 913.233 2591.12 902.663 2586.66C869.983 2572.85 841.553 2543.67 818.163 2499.93C807.853 2480.66 800.723 2462.44 796.483 2450.3C773.833 2453.15 729.093 2456.81 676.723 2450.74C635.773 2445.99 597.723 2436.17 563.623 2421.57C521.003 2403.32 484.403 2377.49 454.843 2344.81C423.733 2310.42 400.593 2269.09 386.063 2221.96C371.823 2175.78 366.583 2126.49 370.493 2075.44C378.733 1967.69 427.393 1863.68 507.513 1782.57L512.633 1777.38L1562.59 1775.14L1567.74 1780.33C1648.01 1861.29 1696.86 1965.21 1705.3 2072.95C1709.3 2123.99 1704.15 2173.29 1689.99 2219.49C1675.54 2266.65 1652.48 2308.03 1621.43 2342.47C1591.93 2375.21 1555.37 2401.1 1512.79 2419.43C1478.71 2434.1 1440.67 2443.98 1399.74 2448.81C1347.24 2455 1302.39 2451.38 1279.79 2448.57C1247.84 2537.42 1180.53 2597.39 1112.89 2597.39C1108.99 2597.39 1105.1 2597.19 1101.21 2596.79C1076.32 2594.21 1055.52 2583.43 1039.05 2570.63C1034.75 2573.81 1029.49 2577.37 1023.79 2580.53C1016.95 2584.32 998.793 2594.38 976.523 2598.04C970.203 2599.06 964.113 2599.51 958.313 2599.51ZM821.243 2410.7L825.483 2426.17C825.763 2427.19 854.093 2528.13 916.283 2554.41C927.033 2558.95 947.033 2567.39 970.853 2563.49C987.143 2560.81 1000.94 2553.17 1006.83 2549.91C1009.13 2548.64 1011.35 2547.26 1013.42 2545.88C1007.71 2539.15 1003.21 2532.9 999.973 2528.02C999.463 2527.33 999.203 2526.97 999.093 2526.8C984.513 2505.61 978.783 2485.77 975.713 2475.11C968.273 2449.31 966.893 2418.84 971.603 2384.54C979.233 2329 1003.04 2273.9 1040.45 2225.19L1068.29 2246.41C1052.48 2267.32 1039.24 2290.11 1028.96 2314.14C1019.37 2336.54 1004.88 2370.39 1004.86 2415.69C1004.85 2433.08 1004.84 2469.25 1026.33 2504.28C1027.24 2505.76 1027.97 2506.88 1028.21 2507.26L1028.28 2507.37C1028.39 2507.54 1028.51 2507.72 1028.63 2507.9C1030.28 2510.08 1034.86 2516 1046.3 2530.18C1060.09 2544.6 1079.96 2559.41 1104.83 2561.99C1131.19 2564.72 1160.1 2553.52 1186.23 2530.43C1214.76 2505.22 1237.79 2467.43 1251.09 2424.01L1255.64 2409.14L1270.94 2411.91C1279.39 2413.44 1479.29 2447.91 1595.44 2319.05C1714.09 2187.4 1692.4 1960.53 1547.96 1810.17L527.373 1812.34C383.183 1962.96 361.913 2189.88 480.803 2321.32C597.173 2449.97 797.023 2415.14 805.473 2413.59L821.243 2410.7Z" fill="black"/>
<path d="M741.163 2418.65C755.973 2418.93 770.973 2417.9 785.713 2414.91C793.083 2413.43 800.393 2411.52 807.593 2409.16C814.813 2406.84 821.893 2403.96 828.823 2400.67C835.823 2397.47 842.503 2393.6 849.103 2389.47C855.733 2385.36 862.053 2380.69 868.263 2375.74C880.673 2365.79 892.123 2354.25 902.943 2341.41C901.773 2345.46 900.303 2349.4 898.713 2353.33C897.873 2355.27 897.053 2357.23 896.133 2359.14L894.773 2362.03L893.303 2364.86C889.353 2372.41 884.713 2379.67 879.483 2386.55C869.073 2400.35 856.133 2412.49 841.573 2422.51L838.843 2424.4C837.923 2425.01 836.973 2425.58 836.043 2426.18C834.163 2427.34 832.303 2428.57 830.383 2429.67L824.563 2432.92C822.613 2434 820.603 2434.94 818.613 2435.94C810.593 2439.83 802.263 2443.17 793.703 2445.83C776.573 2451.11 758.573 2453.95 740.473 2453.65L741.163 2418.65Z" fill="black"/>
<path d="M999.293 2249.09C979.323 2257.04 958.703 2263.29 937.853 2268.31C916.973 2273.26 895.813 2276.87 874.563 2279.07C853.333 2281.36 831.993 2282.29 810.763 2281.57C800.143 2281.16 789.563 2280.47 779.043 2279.28C768.523 2278.11 758.053 2276.56 747.703 2274.36C758.203 2273.07 768.613 2271.87 778.963 2270.51C789.313 2269.12 799.593 2267.69 809.803 2266.02C820.023 2264.4 830.173 2262.58 840.263 2260.62C850.363 2258.69 860.393 2256.56 870.353 2254.21L877.803 2252.4L885.223 2250.48L888.933 2249.54L892.623 2248.53L900.003 2246.51C909.793 2243.67 919.553 2240.78 929.203 2237.59C948.523 2231.28 967.503 2224.13 986.293 2216.58L999.293 2249.09Z" fill="black"/>
<path d="M1084.48 2220.85C1103.24 2228.49 1122.17 2235.74 1141.46 2242.14C1151.09 2245.38 1160.83 2248.32 1170.61 2251.21L1177.98 2253.26L1181.67 2254.29L1185.38 2255.25L1192.79 2257.21L1200.24 2259.06C1210.19 2261.46 1220.21 2263.64 1230.29 2265.62C1240.37 2267.63 1250.52 2269.5 1260.73 2271.17C1270.94 2272.89 1281.21 2274.37 1291.55 2275.81C1301.89 2277.23 1312.3 2278.47 1322.79 2279.82C1312.43 2281.97 1301.96 2283.47 1291.43 2284.58C1280.9 2285.72 1270.31 2286.35 1259.69 2286.71C1238.45 2287.32 1217.12 2286.3 1195.9 2283.89C1174.66 2281.58 1153.52 2277.86 1132.67 2272.81C1111.84 2267.69 1091.25 2261.33 1071.33 2253.28L1084.48 2220.85Z" fill="black"/>
<path d="M796.673 2169.61C807.123 2173.09 817.453 2176.56 827.743 2179.92C832.943 2181.47 838.023 2183.26 843.223 2184.73C845.813 2185.48 848.373 2186.3 850.943 2187.08L858.703 2189.27C861.293 2189.96 863.823 2190.82 866.433 2191.47L874.183 2193.53C879.323 2194.96 884.523 2196.18 889.683 2197.49C900.043 2199.96 910.393 2202.31 920.783 2204.38C941.553 2208.53 962.383 2211.78 983.273 2214.12L991.113 2214.94C993.723 2215.22 996.323 2215.56 998.953 2215.7C1004.19 2216.06 1009.42 2216.51 1014.65 2216.92C1019.89 2217.22 1025.13 2217.43 1030.37 2217.69C1035.6 2218.05 1040.85 2218.03 1046.1 2218.12L1053.97 2218.28L1057.9 2218.36L1061.83 2218.27L1077.57 2218.04C1082.82 2217.94 1088.05 2217.55 1093.3 2217.36C1095.92 2217.23 1098.55 2217.18 1101.17 2216.99L1109.03 2216.37L1116.89 2215.78C1118.2 2215.67 1119.52 2215.62 1120.82 2215.48L1124.74 2215.06L1140.46 2213.41L1156.15 2211.35L1158.12 2211.11L1160.08 2210.8L1163.99 2210.17L1171.83 2208.95L1175.76 2208.35L1179.67 2207.64L1187.5 2206.22C1192.75 2205.38 1197.93 2204.21 1203.16 2203.21C1205.77 2202.67 1208.41 2202.23 1210.99 2201.61C1213.59 2201.02 1216.18 2200.4 1218.8 2199.85C1221.41 2199.26 1224.05 2198.77 1226.63 2198.09C1229.23 2197.46 1231.82 2196.79 1234.43 2196.18C1244.88 2193.71 1255.25 2190.85 1265.72 2188.03L1297.17 2178.92C1279.44 2191.97 1260.2 2202.95 1240.19 2212.39C1235.17 2214.72 1230.14 2217.05 1225.02 2219.15C1219.92 2221.31 1214.77 2223.4 1209.56 2225.3C1204.36 2227.26 1199.15 2229.21 1193.85 2230.88L1185.91 2233.44L1181.93 2234.7L1177.91 2235.82L1169.86 2238.05L1165.83 2239.15L1163.81 2239.7L1161.78 2240.18L1145.47 2243.91C1134.52 2246.01 1123.53 2248.1 1112.42 2249.4L1104.1 2250.49C1101.32 2250.82 1098.53 2251 1095.75 2251.27L1087.39 2251.97L1083.21 2252.31L1081.12 2252.48L1079.02 2252.57L1062.24 2253.15L1058.04 2253.26L1053.84 2253.2L1045.44 2253.08C1034.24 2253.05 1023.07 2252.14 1011.92 2251.31C1006.36 2250.68 1000.79 2250.1 995.243 2249.42C992.463 2249.14 989.703 2248.65 986.943 2248.24L978.663 2246.92C956.623 2243.19 934.873 2237.86 913.723 2230.88C903.153 2227.39 892.713 2223.53 882.483 2219.2C872.243 2214.91 862.183 2210.24 852.363 2205.14C832.733 2194.96 813.913 2183.31 796.673 2169.61Z" fill="black"/>
<path d="M992.753 2594.18H992.353H992.163H992.043L991.573 2594.16C991.243 2594.15 990.973 2594.13 990.703 2594.11C990.163 2594.07 989.623 2594.03 989.133 2593.97C988.113 2593.87 987.163 2593.74 986.203 2593.6C984.303 2593.32 982.483 2592.98 980.673 2592.6C977.083 2591.83 973.613 2590.85 970.213 2589.75C963.433 2587.49 956.983 2584.63 950.913 2581.2C938.763 2574.37 928.353 2565.22 919.963 2554.98C915.763 2549.85 912.163 2544.36 908.883 2538.81L906.593 2534.56C906.223 2533.85 905.813 2533.16 905.473 2532.43L904.453 2530.26L902.433 2525.94L900.643 2521.54C895.963 2509.81 892.853 2497.74 890.863 2485.64C895.643 2496.93 901.443 2507.69 908.343 2517.38L910.943 2520.99L913.713 2524.44L915.093 2526.15C915.553 2526.72 916.063 2527.25 916.553 2527.8L919.473 2531.05C923.533 2535.21 927.723 2539.12 932.233 2542.51C941.253 2549.28 951.133 2554.31 961.373 2557.13C966.483 2558.55 971.663 2559.44 976.773 2559.84C979.323 2560.01 981.863 2560.08 984.323 2559.99C985.543 2559.93 986.753 2559.86 987.903 2559.73C988.473 2559.66 989.033 2559.6 989.543 2559.51C989.813 2559.47 990.033 2559.42 990.253 2559.38C990.373 2559.36 990.473 2559.33 990.533 2559.31L990.633 2559.27L990.663 2559.26L990.613 2559.25L990.503 2559.24L992.753 2594.18Z" fill="black"/>
<path d="M999.053 2518.05C988.403 2508.72 979.403 2498.1 972.303 2486.76C965.183 2475.43 959.973 2463.4 956.633 2451.27C965.093 2460.59 974.633 2468.39 984.743 2474.45C994.843 2480.53 1005.51 2484.87 1016.2 2487.54L999.053 2518.05Z" fill="black"/>
<g opacity="0.25">
<path d="M990.763 2509.91C948.163 2523.48 899.093 2505.03 859.243 2396.48C847.223 2398.85 648.473 2434.54 511.023 2286.74C396.493 2163.58 413.163 2008.34 415.923 1986.12C412.233 1994.66 342.853 2162.83 446.063 2306.94C525.153 2417.37 671.523 2466.09 809.403 2425.73C821.633 2530.38 917.283 2590.97 990.323 2571.19C998.253 2569.04 1005.95 2565.94 1013.31 2561.98C1043.96 2545.52 1023.91 2499.35 990.763 2509.91Z" fill="black"/>
</g>
<path d="M1335.99 2453.51C1317.89 2453.84 1299.88 2451.03 1282.75 2445.79C1274.18 2443.15 1265.85 2439.82 1257.82 2435.95C1255.82 2434.95 1253.81 2434.01 1251.86 2432.94L1246.03 2429.7C1244.1 2428.61 1242.24 2427.38 1240.36 2426.22C1239.42 2425.63 1238.48 2425.06 1237.56 2424.45L1234.83 2422.56C1220.26 2412.57 1207.3 2400.45 1196.86 2386.67C1191.62 2379.8 1186.97 2372.55 1183 2365.01L1181.53 2362.18L1180.17 2359.29C1179.25 2357.38 1178.42 2355.42 1177.58 2353.49C1175.99 2349.56 1174.51 2345.62 1173.33 2341.58C1184.18 2354.41 1195.65 2365.92 1208.07 2375.85C1214.29 2380.79 1220.61 2385.45 1227.25 2389.55C1233.86 2393.66 1240.55 2397.53 1247.55 2400.71C1254.49 2403.99 1261.57 2406.86 1268.8 2409.16C1276.01 2411.51 1283.32 2413.4 1290.69 2414.87C1305.43 2417.84 1320.44 2418.84 1335.25 2418.53L1335.99 2453.51Z" fill="black"/>
<path d="M1083.66 2558.74L1083.55 2558.75L1083.5 2558.76L1083.53 2558.77L1083.63 2558.81C1083.68 2558.84 1083.79 2558.86 1083.91 2558.88C1084.13 2558.93 1084.35 2558.98 1084.62 2559.01C1085.13 2559.1 1085.69 2559.16 1086.26 2559.23C1087.41 2559.35 1088.61 2559.43 1089.84 2559.48C1092.3 2559.56 1094.83 2559.49 1097.39 2559.31C1102.5 2558.9 1107.68 2558 1112.78 2556.57C1123.01 2553.73 1132.88 2548.68 1141.89 2541.89C1146.39 2538.49 1150.58 2534.57 1154.63 2530.41L1157.55 2527.16C1158.03 2526.61 1158.54 2526.08 1159 2525.51L1160.38 2523.79L1163.15 2520.33L1165.74 2516.72C1172.63 2507.01 1178.4 2496.24 1183.16 2484.95C1181.19 2497.05 1178.11 2509.12 1173.44 2520.87L1171.66 2525.28L1169.65 2529.61L1168.63 2531.78C1168.29 2532.5 1167.89 2533.2 1167.52 2533.91L1165.23 2538.17C1161.97 2543.73 1158.37 2549.22 1154.18 2554.36C1145.81 2564.62 1135.42 2573.79 1123.28 2580.64C1117.22 2584.08 1110.77 2586.95 1104 2589.22C1100.6 2590.33 1097.13 2591.31 1093.54 2592.09C1091.74 2592.47 1089.91 2592.82 1088.02 2593.1C1087.07 2593.24 1086.11 2593.37 1085.09 2593.47C1084.6 2593.53 1084.06 2593.57 1083.52 2593.61C1083.26 2593.63 1082.98 2593.65 1082.65 2593.66L1082.18 2593.68H1082.06H1081.87H1081.47L1083.66 2558.74Z" fill="black"/>
<path d="M1012.04 2505.3L1011.93 2505.31L1011.88 2505.32L1011.91 2505.33L1012.01 2505.37C1012.06 2505.4 1012.17 2505.42 1012.29 2505.44C1012.51 2505.49 1012.73 2505.54 1013 2505.57C1013.51 2505.66 1014.07 2505.72 1014.64 2505.79C1015.79 2505.91 1016.99 2505.99 1018.22 2506.04C1020.68 2506.12 1023.21 2506.05 1025.77 2505.87C1030.88 2505.46 1036.06 2504.56 1041.16 2503.13C1051.39 2500.29 1061.26 2495.24 1070.27 2488.45C1074.77 2485.05 1078.96 2481.13 1083.01 2476.97L1085.93 2473.72C1086.41 2473.17 1086.92 2472.64 1087.38 2472.07L1088.76 2470.35L1091.53 2466.89L1094.12 2463.28C1101.01 2453.57 1106.78 2442.8 1111.54 2431.51C1109.57 2443.61 1106.49 2455.68 1101.82 2467.43L1100.04 2471.84L1098.03 2476.17L1097.01 2478.34C1096.67 2479.06 1096.27 2479.76 1095.9 2480.47L1093.61 2484.73C1090.35 2490.29 1086.75 2495.78 1082.56 2500.92C1074.19 2511.18 1063.8 2520.35 1051.66 2527.2C1045.6 2530.64 1039.15 2533.51 1032.38 2535.78C1028.98 2536.89 1025.51 2537.87 1021.92 2538.65C1020.12 2539.03 1018.29 2539.38 1016.4 2539.66C1015.45 2539.8 1014.49 2539.93 1013.47 2540.03C1012.98 2540.09 1012.44 2540.13 1011.9 2540.17C1011.64 2540.19 1011.36 2540.21 1011.03 2540.22L1010.56 2540.24H1010.44H1010.25H1009.85L1012.04 2505.3Z" fill="black"/>
<g opacity="0.25">
<path d="M986.873 2420.95C986.873 2420.95 1126.52 2643.11 1217.14 2394.9C1229.17 2397.25 1427.98 2432.58 1565.15 2284.53C1679.46 2161.16 1662.5 2005.95 1659.7 1983.74C1663.41 1992.27 1733.09 2160.32 1630.14 2304.61C1551.25 2415.18 1404.97 2464.17 1267.02 2424.07C1254.98 2528.74 1159.44 2589.5 1086.36 2569.86C1031.15 2555.01 987.393 2493.9 986.873 2420.95Z" fill="black"/>
</g>
<path d="M1113.42 2598.71C1109.63 2598.71 1105.84 2598.52 1102.05 2598.14C1045.39 2592.42 1009.83 2544.58 997.173 2524.28C947.403 2444.47 966.553 2324.78 1045.94 2219.35L1073.9 2240.4C1038.94 2286.82 1016.15 2336.68 1007.99 2384.61C1000.04 2431.31 1006.56 2473.2 1026.87 2505.76C1036.8 2521.68 1064.34 2559.15 1105.57 2563.32C1131.93 2565.98 1160.82 2554.7 1186.89 2531.54C1215.35 2506.26 1238.28 2468.4 1251.46 2424.95L1255.97 2410.07L1271.28 2412.8C1274.27 2413.33 1301.19 2417.91 1339.84 2417.91C1410.58 2417.91 1520.65 2402.58 1595.53 2319.05C1715.19 2185.55 1690.99 1955 1541.57 1805.13L1566.36 1780.42C1646.85 1861.16 1695.98 1964.95 1704.72 2072.66C1708.86 2123.69 1703.84 2173.01 1689.81 2219.25C1675.49 2266.45 1652.54 2307.89 1621.59 2342.42C1592.17 2375.24 1555.69 2401.23 1513.16 2419.68C1479.12 2434.44 1441.11 2444.43 1400.19 2449.37C1347.7 2455.7 1302.85 2452.2 1280.24 2449.46C1248.47 2538.51 1181.15 2598.7 1113.42 2598.71Z" fill="black"/>
<path d="M660.923 1413.58L1436.1 1411.24C1452.09 1440.4 1467.02 1479.93 1453.92 1516.21C1423.65 1600.01 1264.77 1608.3 1044.13 1617.47C735.063 1630.31 690.473 1577.4 676.363 1556.06C646.803 1511.41 651.533 1455.15 660.923 1413.58Z" fill="#FFEDA3"/>
<path d="M671.143 1438.66C624.513 1616.88 860.313 1609.66 860.313 1609.66C866.973 1531.75 914.193 1472.37 971.273 1462.15C1005.11 1456.09 1034.47 1468.72 1050.19 1477.36L1051.2 1814C796.843 1972.82 515.983 1873.54 451.743 1717.89C400.453 1593.59 473.873 1400.8 648.723 1283.41L1451.32 1280.28C1626.88 1396.59 1701.49 1588.92 1650.97 1713.54C1587.7 1869.58 1307.45 1970.58 1052.12 1813.34L1051.06 1476.7C1066.73 1467.96 1096.01 1455.15 1129.89 1461C1187.03 1470.87 1234.61 1529.96 1241.75 1607.83C1241.75 1607.83 1477.58 1613.6 1429.86 1435.67L671.143 1438.66Z" fill="#FFEDA3"/>
<path d="M671.143 1438.66C670.243 1451.56 669.873 1464.22 670.763 1476.5C671.743 1488.77 674.013 1500.64 678.093 1511.53C682.203 1522.4 687.893 1532.35 695.383 1540.83C702.843 1549.32 711.753 1556.52 721.663 1562.4C731.563 1568.3 742.313 1573.03 753.493 1576.85C764.693 1580.66 776.303 1583.57 788.103 1585.84C799.913 1588.08 811.923 1589.7 823.993 1590.76C830.023 1591.3 836.083 1591.7 842.113 1591.97C845.133 1592.11 848.143 1592.21 851.143 1592.28L855.603 1592.35L859.763 1592.36L843.033 1608.2C844.123 1595.66 846.213 1583.18 849.323 1570.91C852.483 1558.65 856.703 1546.61 862.043 1535.01C863.423 1532.13 864.763 1529.23 866.293 1526.41C867.743 1523.56 869.353 1520.78 870.953 1517.99C874.253 1512.48 877.723 1507.04 881.633 1501.88L883.073 1499.93L884.583 1498.02C885.603 1496.76 886.583 1495.47 887.633 1494.23C889.753 1491.76 891.853 1489.28 894.123 1486.92C896.313 1484.5 898.703 1482.25 901.033 1479.95C903.473 1477.74 905.873 1475.5 908.453 1473.44C910.953 1471.3 913.643 1469.34 916.293 1467.36L920.403 1464.53C921.763 1463.58 923.213 1462.74 924.623 1461.84C930.323 1458.37 936.263 1455.18 942.523 1452.61C948.763 1450.01 955.233 1447.86 961.873 1446.26C965.213 1445.55 968.553 1444.81 971.953 1444.38C975.333 1443.8 978.743 1443.58 982.143 1443.3C988.953 1442.97 995.773 1443.05 1002.48 1443.78C1009.18 1444.52 1015.79 1445.73 1022.23 1447.37C1035.09 1450.72 1047.26 1455.77 1058.64 1461.99L1067.7 1466.94L1067.74 1477.31L1068.9 1813.95L1068.93 1823.8L1060.58 1829.01C1017.15 1856.09 970.063 1877.7 920.673 1892.01C871.313 1906.35 819.713 1913.39 768.163 1912.27C742.393 1911.65 716.633 1909.13 691.243 1904.32C665.853 1899.55 640.793 1892.74 616.533 1883.55C592.273 1874.38 568.763 1862.98 546.613 1849.1C524.483 1835.22 503.693 1818.85 485.313 1799.75C466.923 1780.7 451.073 1758.7 439.483 1734.22C438.723 1732.71 438.063 1731.14 437.383 1729.59L435.353 1724.93L431.763 1715.42L430.873 1713.04L430.433 1711.85L430.063 1710.64L428.583 1705.8L427.113 1700.95L426.383 1698.53L425.793 1696.08L423.453 1686.26C423.023 1684.63 422.813 1682.97 422.493 1681.32L421.613 1676.37L420.743 1671.42C420.493 1669.77 420.333 1668.11 420.123 1666.45L418.963 1656.51L418.323 1646.55C418.233 1644.89 418.073 1643.23 418.053 1641.57L417.993 1636.6C417.983 1633.29 417.873 1629.97 417.943 1626.66L418.333 1616.76C418.423 1615.11 418.413 1613.45 418.583 1611.82L419.013 1606.9C419.323 1603.62 419.553 1600.34 419.933 1597.07L421.253 1587.31C421.483 1585.69 421.683 1584.05 421.943 1582.44L422.823 1577.61C427.403 1551.82 434.633 1526.66 444.303 1502.6C453.903 1478.51 465.613 1455.37 479.043 1433.35C492.473 1411.33 507.613 1390.42 524.233 1370.8C557.433 1331.52 596.243 1297.21 638.783 1268.59L643.263 1265.58L648.673 1265.56L1451.27 1262.58L1456.66 1262.56L1461.12 1265.53C1503.81 1293.89 1542.8 1327.97 1576.21 1367.05C1592.93 1386.57 1608.19 1407.38 1621.73 1429.32C1635.27 1451.25 1647.11 1474.31 1656.84 1498.33C1666.64 1522.32 1674.01 1547.41 1678.73 1573.15L1679.63 1577.97C1679.9 1579.58 1680.1 1581.21 1680.34 1582.83L1681.72 1592.57C1682.11 1595.83 1682.37 1599.11 1682.69 1602.38L1683.15 1607.29C1683.33 1608.92 1683.33 1610.58 1683.43 1612.23L1683.88 1622.11C1683.97 1625.41 1683.88 1628.73 1683.89 1632.03L1683.86 1636.99C1683.85 1638.64 1683.7 1640.3 1683.62 1641.96L1683.04 1651.91L1681.94 1661.85C1681.74 1663.51 1681.59 1665.16 1681.35 1666.82L1680.51 1671.77L1679.66 1676.72C1679.35 1678.37 1679.15 1680.02 1678.73 1681.65L1676.45 1691.46L1675.87 1693.91L1675.15 1696.33L1673.71 1701.18L1672.26 1706.02L1671.89 1707.23L1671.45 1708.42L1670.58 1710.8L1667.05 1720.31L1665.05 1724.97C1664.38 1726.52 1663.73 1728.09 1662.98 1729.6C1651.55 1754.11 1635.85 1776.16 1617.6 1795.29C1599.36 1814.47 1578.69 1830.94 1556.66 1844.93C1534.62 1858.92 1511.2 1870.45 1487.02 1879.74C1462.84 1889.06 1437.85 1896.01 1412.52 1900.93C1387.19 1905.88 1361.47 1908.56 1335.73 1909.34C1284.24 1910.78 1232.65 1904.06 1183.25 1890.03C1133.82 1876.04 1086.65 1854.74 1043.09 1827.95L1034.95 1822.95L1034.92 1813.39L1034.47 1645.07L1034.18 1560.91L1033.74 1476.75L1033.69 1466.58L1042.61 1461.6C1053.91 1455.29 1066.02 1450.14 1078.83 1446.67C1085.25 1444.96 1091.84 1443.69 1098.53 1442.89C1105.23 1442.1 1112.05 1441.95 1118.86 1442.22C1122.27 1442.47 1125.68 1442.66 1129.06 1443.21C1132.46 1443.61 1135.81 1444.32 1139.16 1445.01C1145.81 1446.56 1152.3 1448.66 1158.57 1451.21C1164.86 1453.73 1170.82 1456.88 1176.56 1460.31C1177.97 1461.2 1179.43 1462.02 1180.81 1462.96L1184.94 1465.76C1187.61 1467.72 1190.32 1469.66 1192.84 1471.78C1195.44 1473.83 1197.86 1476.05 1200.31 1478.25C1202.66 1480.53 1205.07 1482.78 1207.27 1485.18C1209.55 1487.52 1211.67 1490 1213.81 1492.46C1214.86 1493.7 1215.86 1494.98 1216.88 1496.24L1218.4 1498.14L1219.85 1500.09C1223.79 1505.24 1227.27 1510.67 1230.6 1516.17C1232.21 1518.95 1233.83 1521.72 1235.29 1524.57C1236.83 1527.38 1238.18 1530.28 1239.57 1533.16C1244.92 1544.76 1249.16 1556.79 1252.32 1569.04C1255.4 1581.31 1257.47 1593.78 1258.53 1606.3L1242.14 1590.97L1244.12 1591.02L1246.31 1591.04L1250.78 1591.01C1253.78 1590.97 1256.8 1590.87 1259.83 1590.74C1265.88 1590.48 1271.94 1590.03 1277.99 1589.47C1290.08 1588.34 1302.1 1586.57 1313.89 1584.12C1325.68 1581.68 1337.25 1578.49 1348.35 1574.43C1359.44 1570.36 1370.03 1565.33 1379.67 1559.15C1389.33 1553 1398 1545.73 1405.29 1537.29C1412.63 1528.88 1418.34 1519.11 1422.46 1508.35L1423.94 1504.27L1425.21 1500.09C1425.69 1498.7 1425.97 1497.26 1426.35 1495.83C1426.7 1494.4 1427.11 1492.97 1427.36 1491.5L1428.24 1487.1C1428.46 1485.62 1428.67 1484.13 1428.91 1482.63C1429.18 1481.14 1429.32 1479.63 1429.48 1478.11C1429.63 1476.59 1429.83 1475.07 1429.94 1473.54C1430.14 1470.48 1430.41 1467.39 1430.44 1464.27C1430.48 1462.71 1430.57 1461.15 1430.57 1459.58L1430.55 1454.86V1452.48L1430.46 1450.11L1430.31 1445.33C1430.23 1442.12 1429.92 1438.94 1429.84 1435.67C1430.55 1437.13 1431.24 1438.59 1431.89 1440.08C1432.54 1441.56 1433.27 1443.03 1433.86 1444.55L1435.62 1449.11C1435.91 1449.87 1436.21 1450.64 1436.48 1451.41L1437.23 1453.74C1437.73 1455.3 1438.24 1456.86 1438.72 1458.44C1439.18 1460.02 1439.56 1461.62 1439.99 1463.21C1440.88 1466.4 1441.42 1469.67 1442.09 1472.94C1443.12 1479.52 1443.94 1486.25 1443.86 1493.08C1443.85 1499.9 1443.36 1506.84 1441.98 1513.71C1440.65 1520.58 1438.6 1527.39 1435.87 1533.97C1433.14 1540.55 1429.63 1546.85 1425.56 1552.72C1417.42 1564.5 1407.02 1574.56 1395.61 1582.62C1384.18 1590.69 1371.91 1597.13 1359.36 1602.39C1346.78 1607.6 1333.89 1611.63 1320.89 1614.85C1307.89 1618.05 1294.76 1620.36 1281.58 1622.02C1274.99 1622.86 1268.38 1623.48 1261.73 1623.94C1258.41 1624.17 1255.08 1624.36 1251.72 1624.49L1246.66 1624.65L1244.09 1624.69H1241.31L1226.55 1624.71L1224.92 1609.36C1223.79 1598.66 1221.84 1588.09 1219.04 1577.8C1216.23 1567.52 1212.55 1557.51 1208.01 1547.99C1206.84 1545.63 1205.72 1543.24 1204.43 1540.96C1203.22 1538.62 1201.88 1536.38 1200.55 1534.12C1197.81 1529.67 1194.95 1525.29 1191.79 1521.19L1190.63 1519.63L1189.41 1518.13C1188.59 1517.13 1187.8 1516.11 1186.96 1515.13C1185.26 1513.2 1183.59 1511.23 1181.79 1509.41C1180.06 1507.51 1178.18 1505.8 1176.35 1504.01C1174.44 1502.33 1172.59 1500.59 1170.6 1499.04C1154.98 1486.22 1136.28 1478.08 1117.01 1477.13C1112.18 1476.93 1107.3 1476.98 1102.42 1477.53C1097.53 1478.09 1092.64 1478.99 1087.78 1480.25C1078.07 1482.82 1068.52 1486.78 1059.44 1491.78L1068.3 1476.63L1068.39 1560.79L1068.63 1644.95L1069.24 1813.27L1061.08 1798.71C1102.16 1823.91 1146.42 1843.82 1192.63 1856.86C1238.81 1869.93 1286.89 1876.12 1334.73 1874.74C1358.64 1873.99 1382.49 1871.49 1405.92 1866.88C1429.34 1862.31 1452.39 1855.87 1474.57 1847.3C1496.74 1838.75 1518.1 1828.2 1537.99 1815.54C1557.87 1802.89 1576.31 1788.12 1592.3 1771.27C1608.32 1754.47 1621.71 1735.44 1631.28 1714.89C1631.92 1713.62 1632.44 1712.31 1633.01 1711.01L1634.68 1707.12L1637.61 1699.16L1638.35 1697.17L1638.72 1696.18L1639.02 1695.16L1640.23 1691.08L1641.45 1687L1642.06 1684.96L1642.54 1682.88L1644.47 1674.54C1644.84 1673.16 1644.99 1671.73 1645.25 1670.32L1645.97 1666.08L1646.7 1661.84C1646.9 1660.42 1647.03 1658.98 1647.2 1657.56L1648.15 1648.98L1648.64 1640.33C1648.71 1638.89 1648.85 1637.45 1648.85 1636L1648.86 1631.65C1648.85 1628.75 1648.94 1625.85 1648.85 1622.95L1648.44 1614.22C1648.35 1612.77 1648.36 1611.31 1648.19 1609.86L1647.77 1605.5C1647.47 1602.59 1647.26 1599.68 1646.91 1596.78L1645.66 1588.08C1645.45 1586.63 1645.27 1585.18 1645.02 1583.73L1644.2 1579.4C1639.93 1556.29 1633.25 1533.46 1624.23 1511.47C1615.28 1489.46 1604.35 1468.17 1591.77 1447.85C1579.19 1427.53 1564.98 1408.16 1549.36 1389.96C1518.15 1353.53 1481.61 1321.62 1441.52 1295.04L1451.37 1297.99L648.773 1301.28L658.663 1298.25C618.773 1325.09 582.453 1357.23 551.493 1393.84C536.003 1412.13 521.923 1431.58 509.493 1451.98C497.063 1472.37 486.273 1493.71 477.473 1515.77C468.603 1537.8 462.083 1560.65 457.973 1583.77L457.183 1588.1C456.953 1589.55 456.783 1591 456.573 1592.45L455.383 1601.15C455.053 1604.05 454.853 1606.96 454.573 1609.87L454.183 1614.23C454.023 1615.68 454.043 1617.14 453.963 1618.59L453.613 1627.31C453.553 1630.21 453.653 1633.1 453.663 1636L453.703 1640.34C453.723 1641.79 453.873 1643.22 453.943 1644.66L454.483 1653.3L455.493 1661.86C455.673 1663.28 455.803 1664.72 456.013 1666.13L456.763 1670.35L457.503 1674.57C457.773 1675.97 457.943 1677.4 458.313 1678.77L460.293 1687.08L460.783 1689.16L461.403 1691.19L462.643 1695.26L463.873 1699.33L464.183 1700.35L464.553 1701.34L465.303 1703.32L468.273 1711.24L469.973 1715.11C470.543 1716.4 471.073 1717.7 471.723 1718.97C481.403 1739.41 494.893 1758.31 510.993 1774.98C527.073 1791.69 545.573 1806.31 565.513 1818.81C585.463 1831.32 606.863 1841.72 629.063 1850.1C651.263 1858.52 674.323 1864.79 697.743 1869.22C721.163 1873.68 745.013 1876.03 768.893 1876.63C816.693 1877.71 864.673 1871.23 910.723 1857.89C956.803 1844.58 1000.89 1824.42 1041.77 1798.99L1033.45 1814.05L1032.58 1477.41L1041.67 1492.73C1032.59 1487.76 1023.06 1483.83 1013.35 1481.28C1008.49 1480.03 1003.61 1479.14 998.723 1478.59C993.833 1478.04 988.963 1478.01 984.133 1478.21C964.853 1479.2 946.173 1487.44 930.583 1500.32C914.943 1513.21 902.393 1530.49 893.533 1549.6C889.113 1559.18 885.563 1569.22 882.883 1579.53C880.253 1589.86 878.463 1600.44 877.503 1611.13L876.123 1626.6L860.773 1626.97H860.763L857.973 1627.03L855.393 1627.05C853.683 1627.05 852.003 1627.03 850.323 1626.99C846.963 1626.92 843.623 1626.77 840.293 1626.59C833.633 1626.21 827.003 1625.62 820.393 1624.84C807.173 1623.26 794.023 1620.96 781.003 1617.7C767.983 1614.46 755.103 1610.31 742.563 1604.99C730.043 1599.62 717.853 1593.03 706.593 1584.81C700.953 1580.73 695.603 1576.15 690.613 1571.17C685.623 1566.2 681.023 1560.78 676.983 1554.96C672.953 1549.15 669.373 1542.99 666.593 1536.5C663.783 1530.03 661.723 1523.3 660.263 1516.52C657.453 1502.9 657.513 1489.12 659.543 1476.02C661.743 1462.91 665.663 1450.37 671.143 1438.66Z" fill="#FFEDA3"/>
<g opacity="0.5">
<path d="M669.743 1295.61C669.743 1295.61 356.973 1508.69 470.273 1764.24C444.143 1734.91 430.613 1706.53 423.353 1682.7C385.293 1557.72 471.293 1398.18 633.853 1276.97L669.743 1295.61Z" fill="white"/>
</g>
<g opacity="0.5">
<path d="M1444.94 1298.67C1444.94 1298.67 1755.43 1515.05 1639.43 1769.39C1665.87 1740.34 1679.7 1712.1 1687.22 1688.35C1726.61 1563.78 1642.3 1403.33 1481.04 1280.41L1444.94 1298.67Z" fill="white"/>
</g>
<g opacity="0.5">
<path d="M862.073 1641.43C862.073 1641.43 621.223 1652.51 655.653 1460.69C654.083 1473.42 652.163 1504.02 670.043 1533.16C685.493 1558.34 707.613 1569.2 729.583 1579.62C777.003 1602.11 824.113 1605.77 859.843 1603.86L862.073 1641.43Z" fill="white"/>
</g>
<g opacity="0.5">
<path d="M1245.72 1636.65C1245.72 1636.65 1486.74 1643.09 1448.62 1451.97C1450.43 1464.66 1452.95 1495.22 1435.63 1524.71C1420.67 1550.19 1398.76 1561.47 1377 1572.31C1330.02 1595.71 1282.99 1600.28 1247.23 1599.05L1245.72 1636.65Z" fill="white"/>
</g>
<g opacity="0.5">
<path d="M1051.73 1510.34C1042.42 1504.06 1006 1481.05 962.673 1490.38C910.983 1501.51 870.273 1554.17 868.163 1619.72C868.163 1619.72 873.023 1402.52 1053.29 1475.32C1052.77 1487 1052.25 1498.67 1051.73 1510.34Z" fill="white"/>
</g>
<g opacity="0.5">
<path d="M1056.64 1507.48C1066.16 1501.52 1103.35 1479.79 1146.34 1490.62C1197.62 1503.53 1236.47 1557.57 1236.31 1623.16C1236.31 1623.16 1238.97 1405.92 1056.3 1472.44C1056.41 1484.12 1056.52 1495.8 1056.64 1507.48Z" fill="white"/>
</g>
<path d="M1053.29 1475.33C1038.24 1468.82 989.653 1450.11 943.253 1470.66C881.023 1498.22 844.873 1586.59 872.783 1680.69C872.783 1680.69 959.423 1859.04 869.483 1886.81C869.483 1886.81 967.553 1883.13 1045.84 1817.49L1053.29 1475.33Z" fill="#864000"/>
<path d="M1044.16 1475.6C1058.87 1468.34 1106.45 1447.21 1153.83 1465.41C1217.36 1489.81 1257.91 1576.25 1234.77 1671.63C1234.77 1671.63 1157.2 1854.11 1248.42 1877.33C1248.42 1877.33 1150.28 1878.58 1068.79 1816.96L1044.16 1475.6Z" fill="#864000"/>
<path d="M663.493 1436.08C662.563 1449.3 662.183 1462.28 663.103 1474.87C664.103 1487.45 666.433 1499.61 670.613 1510.78C674.823 1521.92 680.663 1532.12 688.333 1540.81C695.983 1549.51 705.113 1556.89 715.273 1562.92C725.423 1568.96 736.433 1573.82 747.893 1577.73C759.373 1581.63 771.273 1584.62 783.373 1586.94C795.483 1589.24 807.793 1590.9 820.163 1591.98C826.343 1592.53 832.553 1592.94 838.743 1593.22C841.833 1593.36 844.923 1593.46 847.993 1593.53L852.563 1593.6L856.833 1593.61L839.683 1609.84C840.803 1596.99 842.943 1584.19 846.123 1571.61C849.363 1559.04 853.693 1546.7 859.163 1534.81C860.583 1531.86 861.953 1528.88 863.523 1526C865.003 1523.07 866.653 1520.23 868.293 1517.37C871.683 1511.72 875.233 1506.15 879.233 1500.85L880.703 1498.85L882.253 1496.9C883.293 1495.6 884.303 1494.29 885.373 1493.01C887.543 1490.48 889.693 1487.93 892.023 1485.52C894.263 1483.04 896.713 1480.73 899.113 1478.38C901.613 1476.12 904.073 1473.82 906.713 1471.7C909.283 1469.5 912.033 1467.5 914.753 1465.47L918.963 1462.57C920.363 1461.6 921.843 1460.73 923.293 1459.82C929.143 1456.26 935.223 1452.99 941.643 1450.36C948.043 1447.69 954.673 1445.49 961.473 1443.85C964.903 1443.12 968.323 1442.37 971.803 1441.92C975.263 1441.33 978.763 1441.1 982.243 1440.81C989.223 1440.47 996.213 1440.56 1003.09 1441.31C1009.96 1442.07 1016.73 1443.3 1023.33 1444.99C1036.52 1448.43 1048.99 1453.6 1060.65 1459.98L1069.93 1465.05L1069.97 1475.68L1071.16 1820.76L1071.19 1830.85L1062.63 1836.19C1018.11 1863.95 969.843 1886.1 919.213 1900.77C868.613 1915.47 815.723 1922.69 762.873 1921.54C736.453 1920.91 710.053 1918.32 684.023 1913.39C658.003 1908.5 632.303 1901.52 607.433 1892.1C582.563 1882.7 558.463 1871.01 535.753 1856.78C513.063 1842.55 491.753 1825.77 472.913 1806.19C454.063 1786.66 437.823 1764.11 425.933 1739.01C425.153 1737.46 424.483 1735.86 423.783 1734.27L421.703 1729.49L418.023 1719.74L417.113 1717.3L416.663 1716.08L416.283 1714.84L414.763 1709.88L413.253 1704.91L412.503 1702.43L411.893 1699.92L409.493 1689.86C409.053 1688.19 408.833 1686.49 408.513 1684.8L407.613 1679.73L406.723 1674.66C406.473 1672.97 406.303 1671.26 406.083 1669.57L404.893 1659.38L404.243 1649.18C404.153 1647.48 403.993 1645.78 403.963 1644.08L403.903 1638.99C403.893 1635.6 403.773 1632.19 403.853 1628.81L404.253 1618.66C404.343 1616.97 404.343 1615.27 404.513 1613.59L404.953 1608.55C405.263 1605.19 405.513 1601.82 405.893 1598.47L407.253 1588.47C407.493 1586.8 407.693 1585.13 407.953 1583.47L408.853 1578.52C413.553 1552.09 420.963 1526.3 430.873 1501.63C440.713 1476.93 452.723 1453.22 466.483 1430.65C480.243 1408.08 495.773 1386.64 512.803 1366.53C546.833 1326.26 586.623 1291.09 630.223 1261.76L634.813 1258.67L640.353 1258.65L1463.08 1255.6L1468.6 1255.58L1473.18 1258.62C1516.94 1287.69 1556.91 1322.63 1591.16 1362.68C1608.3 1382.69 1623.94 1404.02 1637.82 1426.51C1651.7 1448.99 1663.84 1472.62 1673.81 1497.25C1683.86 1521.84 1691.41 1547.57 1696.25 1573.95L1697.18 1578.89C1697.46 1580.54 1697.67 1582.21 1697.91 1583.88L1699.32 1593.86C1699.72 1597.2 1699.98 1600.57 1700.32 1603.92L1700.79 1608.95C1700.97 1610.62 1700.98 1612.32 1701.08 1614.01L1701.54 1624.14C1701.63 1627.52 1701.54 1630.92 1701.55 1634.31L1701.52 1639.4C1701.51 1641.1 1701.35 1642.8 1701.27 1644.5L1700.68 1654.69L1699.55 1664.88C1699.35 1666.58 1699.19 1668.28 1698.94 1669.97L1698.08 1675.04L1697.21 1680.11C1696.9 1681.8 1696.69 1683.5 1696.26 1685.17L1693.93 1695.23L1693.34 1697.74L1692.61 1700.22L1691.13 1705.19L1689.64 1710.15L1689.26 1711.39L1688.81 1712.61L1687.91 1715.05L1684.3 1724.8L1682.25 1729.58C1681.56 1731.17 1680.9 1732.78 1680.13 1734.33C1668.41 1759.45 1652.32 1782.06 1633.61 1801.66C1614.91 1821.32 1593.72 1838.2 1571.15 1852.54C1548.56 1866.88 1524.55 1878.7 1499.76 1888.22C1474.97 1897.78 1449.35 1904.9 1423.39 1909.94C1397.42 1915.02 1371.06 1917.76 1344.68 1918.56C1291.9 1920.03 1239.02 1913.15 1188.38 1898.77C1137.71 1884.43 1089.35 1862.59 1044.7 1835.13L1036.36 1830L1036.33 1820.21L1035.87 1647.67L1035.57 1561.4L1035.12 1475.13L1035.07 1464.7L1044.21 1459.6C1055.8 1453.13 1068.2 1447.85 1081.34 1444.29C1087.92 1442.54 1094.67 1441.24 1101.53 1440.42C1108.4 1439.61 1115.38 1439.45 1122.36 1439.73C1125.85 1439.99 1129.35 1440.18 1132.82 1440.74C1136.31 1441.15 1139.74 1441.88 1143.17 1442.58C1149.99 1444.17 1156.64 1446.32 1163.07 1448.93C1169.51 1451.52 1175.63 1454.74 1181.51 1458.25C1182.96 1459.16 1184.46 1460.01 1185.86 1460.97L1190.1 1463.84C1192.84 1465.85 1195.61 1467.83 1198.2 1470.01C1200.86 1472.11 1203.35 1474.39 1205.86 1476.64C1208.27 1478.98 1210.74 1481.28 1213 1483.75C1215.34 1486.15 1217.51 1488.69 1219.7 1491.21C1220.78 1492.48 1221.8 1493.79 1222.85 1495.08L1224.41 1497.03L1225.9 1499.03C1229.94 1504.31 1233.51 1509.88 1236.92 1515.52C1238.57 1518.37 1240.23 1521.21 1241.73 1524.13C1243.31 1527.01 1244.69 1529.98 1246.12 1532.93C1251.61 1544.82 1255.95 1557.15 1259.19 1569.71C1262.35 1582.29 1264.47 1595.07 1265.55 1607.9L1248.75 1592.19L1250.78 1592.24L1253.03 1592.26L1257.61 1592.23C1260.69 1592.18 1263.78 1592.09 1266.88 1591.95C1273.08 1591.68 1279.3 1591.22 1285.49 1590.65C1297.88 1589.49 1310.2 1587.68 1322.29 1585.17C1334.38 1582.67 1346.23 1579.4 1357.61 1575.24C1368.97 1571.06 1379.84 1565.91 1389.72 1559.58C1399.62 1553.28 1408.51 1545.83 1415.98 1537.17C1423.5 1528.55 1429.35 1518.54 1433.58 1507.51L1435.09 1503.33L1436.39 1499.04C1436.88 1497.62 1437.17 1496.14 1437.55 1494.67C1437.91 1493.2 1438.33 1491.73 1438.59 1490.23L1439.49 1485.72C1439.71 1484.2 1439.93 1482.67 1440.18 1481.14C1440.46 1479.61 1440.6 1478.06 1440.76 1476.51C1440.91 1474.96 1441.12 1473.4 1441.23 1471.83C1441.44 1468.69 1441.71 1465.52 1441.75 1462.33C1441.79 1460.73 1441.88 1459.13 1441.88 1457.52L1441.86 1452.68V1450.24L1441.77 1447.81L1441.61 1442.91C1441.53 1439.62 1441.21 1436.36 1441.13 1433.01C1441.86 1434.5 1442.56 1436.01 1443.24 1437.53C1443.91 1439.05 1444.66 1440.56 1445.26 1442.11L1447.07 1446.78C1447.37 1447.56 1447.67 1448.35 1447.95 1449.14L1448.72 1451.53C1449.23 1453.13 1449.76 1454.73 1450.25 1456.34C1450.72 1457.96 1451.11 1459.6 1451.55 1461.23C1452.47 1464.5 1453.02 1467.85 1453.7 1471.21C1454.76 1477.95 1455.59 1484.85 1455.51 1491.86C1455.5 1498.85 1455 1505.97 1453.58 1513C1452.21 1520.04 1450.12 1527.02 1447.32 1533.77C1444.53 1540.52 1440.93 1546.97 1436.76 1552.99C1428.41 1565.06 1417.76 1575.38 1406.06 1583.64C1394.34 1591.91 1381.77 1598.52 1368.9 1603.91C1356 1609.25 1342.79 1613.38 1329.47 1616.68C1316.14 1619.96 1302.69 1622.32 1289.18 1624.03C1282.42 1624.89 1275.64 1625.52 1268.84 1626C1265.43 1626.23 1262.02 1626.43 1258.58 1626.57L1253.39 1626.73L1250.75 1626.78H1247.9L1232.77 1626.8L1231.1 1611.07C1229.94 1600.1 1227.94 1589.27 1225.07 1578.71C1222.18 1568.17 1218.42 1557.91 1213.77 1548.16C1212.57 1545.74 1211.42 1543.3 1210.1 1540.95C1208.86 1538.56 1207.48 1536.25 1206.12 1533.94C1203.31 1529.38 1200.38 1524.89 1197.14 1520.69L1195.95 1519.09L1194.7 1517.55C1193.86 1516.53 1193.05 1515.48 1192.19 1514.47C1190.45 1512.49 1188.74 1510.48 1186.89 1508.61C1185.12 1506.66 1183.18 1504.91 1181.32 1503.08C1179.37 1501.36 1177.46 1499.58 1175.43 1497.98C1159.41 1484.84 1140.25 1476.5 1120.5 1475.52C1115.55 1475.32 1110.55 1475.36 1105.54 1475.93C1100.53 1476.51 1095.52 1477.43 1090.53 1478.72C1080.57 1481.36 1070.79 1485.41 1061.48 1490.54L1070.57 1475.01L1070.66 1561.28L1070.91 1647.55L1071.53 1820.09L1063.16 1805.17C1105.27 1831.01 1150.64 1851.42 1198.01 1864.78C1245.35 1878.17 1294.63 1884.52 1343.67 1883.11C1368.18 1882.35 1392.63 1879.78 1416.64 1875.05C1440.65 1870.36 1464.28 1863.77 1487.01 1854.98C1509.74 1846.22 1531.63 1835.4 1552.02 1822.43C1572.4 1809.46 1591.3 1794.32 1607.69 1777.05C1624.11 1759.83 1637.84 1740.32 1647.64 1719.26C1648.29 1717.96 1648.83 1716.62 1649.41 1715.29L1651.13 1711.3L1654.13 1703.14L1654.88 1701.1L1655.26 1700.08L1655.57 1699.03L1656.81 1694.84L1658.06 1690.66L1658.69 1688.57L1659.18 1686.43L1661.16 1677.89C1661.54 1676.48 1661.7 1675.01 1661.96 1673.57L1662.7 1669.23L1663.44 1664.89C1663.65 1663.43 1663.78 1661.96 1663.95 1660.5L1664.92 1651.71L1665.42 1642.84C1665.49 1641.36 1665.63 1639.89 1665.64 1638.4L1665.65 1633.94C1665.64 1630.97 1665.73 1628 1665.64 1625.02L1665.22 1616.08C1665.13 1614.59 1665.14 1613.1 1664.97 1611.61L1664.54 1607.14C1664.24 1604.16 1664.02 1601.18 1663.65 1598.2L1662.37 1589.28C1662.15 1587.79 1661.97 1586.3 1661.72 1584.82L1660.88 1580.38C1656.5 1556.69 1649.65 1533.29 1640.41 1510.75C1631.24 1488.18 1620.03 1466.36 1607.14 1445.54C1594.25 1424.71 1579.68 1404.85 1563.67 1386.2C1531.68 1348.86 1494.22 1316.15 1453.13 1288.9L1463.23 1291.92L640.503 1295.29L650.633 1292.18C609.733 1319.69 572.513 1352.63 540.783 1390.17C524.903 1408.92 510.473 1428.86 497.733 1449.76C484.993 1470.66 473.923 1492.54 464.913 1515.15C455.823 1537.73 449.133 1561.16 444.923 1584.85L444.113 1589.29C443.873 1590.77 443.703 1592.26 443.493 1593.75L442.273 1602.67C441.933 1605.65 441.733 1608.63 441.443 1611.61L441.043 1616.08C440.883 1617.57 440.903 1619.06 440.823 1620.55L440.463 1629.48C440.393 1632.46 440.503 1635.42 440.513 1638.39L440.553 1642.84C440.573 1644.32 440.723 1645.79 440.803 1647.27L441.363 1656.12L442.393 1664.89C442.573 1666.35 442.713 1667.82 442.933 1669.27L443.703 1673.6L444.463 1677.93C444.743 1679.37 444.913 1680.83 445.293 1682.24L447.323 1690.76L447.823 1692.89L448.463 1694.97L449.733 1699.14L450.993 1703.31L451.313 1704.35L451.693 1705.36L452.463 1707.39L455.513 1715.51L457.253 1719.48C457.833 1720.8 458.383 1722.14 459.043 1723.43C468.963 1744.38 482.793 1763.76 499.303 1780.84C515.783 1797.97 534.753 1812.96 555.183 1825.77C575.633 1838.59 597.563 1849.25 620.323 1857.85C643.083 1866.48 666.723 1872.91 690.733 1877.45C714.743 1882.02 739.183 1884.43 763.673 1885.05C812.663 1886.16 861.853 1879.51 909.063 1865.84C956.303 1852.2 1001.49 1831.53 1043.4 1805.46L1034.87 1820.89L1033.98 1475.81L1043.3 1491.51C1034 1486.42 1024.22 1482.39 1014.27 1479.77C1009.29 1478.49 1004.28 1477.58 999.283 1477.01C994.273 1476.45 989.283 1476.41 984.333 1476.62C964.573 1477.63 945.423 1486.08 929.433 1499.29C913.403 1512.51 900.533 1530.21 891.453 1549.8C886.923 1559.62 883.283 1569.91 880.533 1580.48C877.833 1591.07 876.003 1601.92 875.023 1612.87L873.603 1628.73L857.873 1629.11H857.863L855.003 1629.18L852.363 1629.2C850.613 1629.2 848.883 1629.18 847.163 1629.14C843.713 1629.07 840.293 1628.92 836.883 1628.73C830.053 1628.34 823.263 1627.74 816.483 1626.93C802.933 1625.31 789.443 1622.95 776.103 1619.61C762.763 1616.29 749.553 1612.03 736.703 1606.58C723.873 1601.08 711.383 1594.32 699.833 1585.89C694.053 1581.71 688.563 1577.02 683.453 1571.91C678.343 1566.81 673.623 1561.26 669.483 1555.3C665.353 1549.34 661.683 1543.03 658.833 1536.38C655.953 1529.75 653.833 1522.84 652.343 1515.89C649.463 1501.93 649.523 1487.81 651.603 1474.37C653.863 1460.93 657.873 1448.08 663.493 1436.08Z" fill="black"/>
<path d="M1042.22 1560.11L1039.28 1558.28C1038.17 1557.62 1037.04 1556.93 1035.9 1556.27C1033.62 1554.93 1031.28 1553.65 1028.94 1552.43C1024.24 1550 1019.49 1547.8 1014.73 1546.07C1005.22 1542.56 995.863 1540.84 987.643 1542.42C983.513 1543.22 979.543 1544.86 975.733 1547.55C971.953 1550.25 968.293 1553.9 964.973 1558.24C961.663 1562.59 958.573 1567.52 955.723 1572.8C952.853 1578.08 950.193 1583.67 947.343 1589.44C946.183 1583.12 945.803 1576.71 946.093 1570.2C946.423 1563.7 947.493 1557.1 949.613 1550.52C951.763 1543.97 955.043 1537.39 959.943 1531.5C964.833 1525.65 971.373 1520.56 978.773 1517.32C982.453 1515.67 986.303 1514.47 990.173 1513.66C994.043 1512.83 997.923 1512.41 1001.73 1512.29C1009.37 1512.03 1016.73 1512.98 1023.71 1514.56C1030.69 1516.18 1037.33 1518.43 1043.67 1521.19C1046.84 1522.58 1049.94 1524.08 1052.97 1525.73C1054.48 1526.56 1056 1527.41 1057.49 1528.33L1059.75 1529.75L1060.91 1530.51L1062.26 1531.44L1042.22 1560.11Z" fill="black"/>
<path d="M881.683 1575.56C879.413 1584.39 877.243 1593.31 875.653 1602.46C874.063 1611.61 872.913 1620.95 872.423 1630.49C872.163 1635.26 872.063 1640.07 872.103 1644.93C872.163 1649.78 872.383 1654.68 872.723 1659.62C873.453 1669.5 874.853 1679.48 876.643 1689.75C870.033 1681.69 864.513 1672.68 859.943 1663.11C855.333 1653.55 851.763 1643.37 849.213 1632.86C846.633 1622.35 845.193 1611.47 844.833 1600.51C844.503 1589.55 845.313 1578.47 847.573 1567.65L881.683 1575.56Z" fill="black"/>
<g opacity="0.25">
<path d="M1053.07 1817.5C1018.33 1841.54 879.083 1931.89 704.063 1898.57C654.323 1889.1 501.133 1859.94 444.323 1727.64C405.453 1637.14 433.183 1548.43 444.043 1518.51C446.353 1544.96 460.593 1677.07 570.273 1757.26C697.203 1850.06 892.943 1831.09 942.843 1750.3C977.113 1694.82 941.333 1612.2 987.353 1584.29C1005.59 1573.23 1027.65 1576.24 1042.35 1579.96L1053.07 1817.5Z" fill="black"/>
<path d="M781.663 1906.39C755.583 1906.39 729.663 1903.95 703.973 1899.06C653.723 1889.49 500.783 1860.38 443.863 1727.84C407.863 1644.02 428.223 1560.61 443.573 1518.35L444.343 1516.23L444.543 1518.48C447.743 1555.13 466.293 1680.63 570.573 1756.87C655.823 1819.2 761.463 1826.69 831.903 1812.91C884.483 1802.63 923.733 1780.3 942.423 1750.05C958.083 1724.69 959.033 1694.16 959.953 1664.63C960.993 1630.94 961.983 1599.11 987.103 1583.88C1001.3 1575.27 1019.94 1573.79 1042.48 1579.49L1042.84 1579.58L1042.86 1579.95L1053.59 1817.75L1053.36 1817.91C1016.4 1843.49 974.203 1864.97 931.343 1880.02C881.293 1897.58 831.203 1906.39 781.663 1906.39ZM443.743 1520.81C428.553 1563.56 409.503 1645.31 444.773 1727.44C501.483 1859.49 654.023 1888.53 704.153 1898.07C867.843 1929.23 1002.16 1852.06 1052.55 1817.24L1041.86 1580.36C1019.74 1574.83 1001.49 1576.3 987.603 1584.73C962.943 1599.68 961.973 1631.24 960.933 1664.66C960.013 1694.32 959.063 1724.99 943.263 1750.57C924.423 1781.07 884.943 1803.55 832.093 1813.89C790.513 1822.02 744.903 1821.73 700.203 1813.05C651.663 1803.62 606.633 1784.47 569.983 1757.67C523.533 1723.71 488.683 1676.68 466.423 1617.91C451.653 1578.92 445.923 1543.95 443.743 1520.81Z" fill="black"/>
</g>
<path d="M1043.04 1530.8L1044.38 1529.86L1045.53 1529.1L1047.78 1527.67C1049.27 1526.74 1050.78 1525.89 1052.29 1525.04C1055.32 1523.37 1058.41 1521.86 1061.57 1520.45C1067.89 1517.65 1074.52 1515.36 1081.49 1513.69C1088.46 1512.07 1095.81 1511.07 1103.45 1511.28C1107.27 1511.38 1111.15 1511.77 1115.02 1512.58C1118.89 1513.37 1122.75 1514.54 1126.44 1516.17C1133.86 1519.36 1140.43 1524.41 1145.36 1530.23C1150.29 1536.09 1153.61 1542.66 1155.8 1549.19C1157.97 1555.75 1159.08 1562.35 1159.44 1568.84C1159.77 1575.35 1159.43 1581.76 1158.31 1588.09C1155.43 1582.35 1152.74 1576.76 1149.83 1571.51C1146.94 1566.25 1143.82 1561.34 1140.49 1557.01C1137.15 1552.69 1133.47 1549.07 1129.67 1546.39C1125.84 1543.72 1121.86 1542.11 1117.73 1541.34C1109.5 1539.8 1100.15 1541.59 1090.67 1545.15C1085.93 1546.91 1081.19 1549.15 1076.5 1551.6C1074.16 1552.84 1071.84 1554.13 1069.56 1555.49C1068.42 1556.15 1067.3 1556.85 1066.19 1557.52L1063.26 1559.37L1043.04 1530.8Z" fill="black"/>
<path d="M1257.95 1565.7C1260.28 1576.5 1261.15 1587.57 1260.89 1598.54C1260.6 1609.51 1259.23 1620.39 1256.71 1630.92C1254.23 1641.45 1250.73 1651.65 1246.17 1661.24C1241.67 1670.84 1236.2 1679.89 1229.64 1687.98C1231.37 1677.71 1232.71 1667.71 1233.38 1657.83C1233.69 1652.89 1233.88 1647.99 1233.91 1643.14C1233.92 1638.28 1233.79 1633.47 1233.5 1628.7C1232.95 1619.17 1231.75 1609.83 1230.1 1600.69C1228.45 1591.54 1226.23 1582.64 1223.9 1573.83L1257.95 1565.7Z" fill="black"/>
<g opacity="0.25">
<path d="M1054.01 1816.81C1088.89 1840.64 1228.71 1930.12 1403.51 1895.73C1453.19 1885.96 1606.19 1855.85 1662.2 1723.21C1700.51 1632.47 1672.24 1543.94 1661.19 1514.09C1659.04 1540.55 1645.62 1672.75 1536.43 1753.62C1410.07 1847.2 1214.22 1829.43 1163.83 1748.95C1129.22 1693.68 1164.49 1610.84 1118.3 1583.22C1099.99 1572.27 1077.95 1575.42 1063.27 1579.23L1054.01 1816.81Z" fill="black"/>
<path d="M1323.38 1904.04C1274.68 1904.04 1225.41 1895.54 1176.12 1878.58C1133.17 1863.8 1090.84 1842.58 1053.72 1817.23L1053.49 1817.07L1062.77 1578.84L1063.13 1578.75C1085.64 1572.91 1104.28 1574.28 1118.54 1582.8C1143.75 1597.88 1144.94 1629.7 1146.19 1663.38C1147.29 1692.9 1148.42 1723.43 1164.24 1748.69C1183.11 1778.83 1222.5 1800.91 1275.14 1810.87C1345.66 1824.21 1451.26 1816.07 1536.12 1753.22C1637.1 1678.44 1656.87 1561.05 1660.68 1514.06L1660.86 1511.81L1661.64 1513.93C1677.24 1556.09 1698.12 1639.38 1662.64 1723.42C1606.53 1856.31 1453.78 1886.36 1403.59 1896.24C1377.1 1901.44 1350.33 1904.04 1323.38 1904.04ZM1054.52 1816.56C1105.12 1851.07 1239.92 1927.42 1403.41 1895.25C1453.48 1885.4 1605.83 1855.43 1661.73 1723.03C1696.5 1640.69 1676.94 1559.05 1661.49 1516.4C1659.45 1539.56 1653.94 1574.56 1639.41 1613.64C1617.51 1672.55 1582.96 1719.78 1536.72 1754.03C1500.23 1781.05 1455.32 1800.48 1406.84 1810.21C1362.19 1819.17 1316.59 1819.74 1274.95 1811.87C1222.03 1801.86 1182.41 1779.62 1163.39 1749.24C1147.43 1723.75 1146.29 1693.09 1145.19 1663.44C1143.95 1630.03 1142.78 1598.48 1118.03 1583.68C1104.09 1575.34 1085.83 1573.98 1063.75 1579.65L1054.52 1816.56Z" fill="black"/>
</g>
<g opacity="0.25">
<path d="M876.343 1540.22C876.343 1540.22 682.623 1557.3 653.993 1460.7C653.993 1460.7 619.413 1602.51 859.493 1610.95L876.343 1540.22Z" fill="black"/>
</g>
<g opacity="0.25">
<path d="M1223.39 1543.53C1223.39 1543.53 1417.12 1560.56 1445.72 1463.95C1445.72 1463.95 1480.34 1605.75 1240.26 1614.25L1223.39 1543.53Z" fill="black"/>
</g>
<g opacity="0.25">
<path d="M1595.32 1829.62C1561.55 1859.58 1483.93 1920.1 1367.27 1942C1242.72 1965.38 1139.95 1932.3 1085.05 1908.12C1065.23 1899.39 1042.58 1899.91 1023.17 1909.51C963.003 1939.27 831.493 1988.79 682.113 1942.39C579.053 1910.38 513.763 1847.08 483.343 1812.96L506.723 1812.89C537.693 1836.09 635.953 1903.53 778.693 1903.76C924.013 1903.99 1023.75 1834.42 1054.31 1811.24C1092.67 1837.07 1195.02 1898.54 1338.81 1898.74C1463.2 1898.91 1554.8 1853.12 1595.32 1829.62Z" fill="black"/>
</g>
<g opacity="0.25">
<path d="M758.013 2276.41C758.013 2276.41 883.293 2253.01 807.103 2175.15C870.213 2189.79 950.133 2202.73 1042.98 2204.71C1139.06 2206.76 1221.96 2196.49 1287.04 2183.86C1276.13 2187.34 1267.5 2193.46 1261.23 2200.95C1250.87 2213.3 1244.92 2232.93 1251.84 2250.62C1259.97 2271.43 1284.12 2284.66 1309.95 2280.6C1287.76 2279.42 1264.37 2277.36 1239.91 2274.14C1183.47 2266.71 1133.16 2254.68 1089.77 2241.25L973.083 2243.27C942.713 2253.71 905.153 2263.95 861.473 2270.28C822.543 2275.9 787.533 2277.15 758.013 2276.41Z" fill="black"/>
</g>
<path d="M1562.57 1255.08C1463.82 1307.55 1289.54 1346.33 1076.63 1348.93C894.703 1351.15 743.933 1317.33 637.643 1283.57C581.953 1265.88 529.013 1240.34 481.153 1206.81C181.953 997.231 321.113 670.211 372.943 571.511C383.143 552.091 385.113 529.411 378.563 508.481C150.643 -219.689 605.913 52.7112 734.763 140.881C755.423 155.021 781.343 159.061 805.303 151.811C869.063 132.511 955.483 114.101 1058.48 113.251C1163.69 112.381 1251.98 130.121 1316.62 148.871C1339.64 155.551 1364.41 151.731 1384.5 138.661C1399.11 129.151 1415.92 118.701 1434.71 107.841C1465.63 89.9712 1498.36 73.0311 1518.11 64.2411C1553.73 48.3712 1683.64 -9.49883 1753.62 43.1412C1820.41 93.3712 1803.51 222.341 1794.89 288.061C1789.99 325.421 1780.88 359.261 1769.24 402.441C1757.96 444.301 1746.16 480.791 1735.56 510.791C1727.81 532.701 1729.63 556.841 1740.62 577.321C1760.43 614.181 1779.88 660.961 1795 716.221C1822.5 816.741 1832.46 948.421 1762.33 1073.04C1762.33 1073.04 1702.73 1180.61 1562.57 1255.08Z" fill="#FFEDA3"/>
<path d="M1059.55 1366.53C914.503 1366.53 770.873 1344.25 632.333 1300.24C573.683 1281.61 519.443 1255 471.103 1221.14C399.283 1170.83 346.703 1109.99 314.813 1040.29C288.083 981.871 275.673 916.851 277.913 847.021C281.853 724.511 329.423 616.721 357.433 563.381C365.493 548.031 367.063 530.391 361.843 513.721C318.453 375.111 297.043 263.341 298.203 181.531C299.273 106.251 319.483 53.5211 358.283 24.8211C404.243 -9.17892 473.643 -8.24894 564.573 27.6111C634.013 54.9911 700.813 96.4811 744.623 126.461C761.003 137.671 781.273 140.811 800.213 135.081C884.013 109.721 970.853 96.4911 1058.32 95.7711C1147.34 95.0611 1235.89 107.251 1321.48 132.081C1339.53 137.321 1359.01 134.371 1374.94 124.011C1391.58 113.181 1408.74 102.651 1425.94 92.7111C1455.99 75.3411 1489.37 57.9011 1510.97 48.2711C1529.18 40.1611 1571.82 21.1611 1619.27 10.9111C1681.42 -2.51889 1730.16 3.62106 1764.13 29.1711C1797.22 54.0511 1816.01 97.6211 1819.99 158.671C1823.15 207.121 1816.58 257.211 1812.24 290.351C1807.19 328.861 1797.91 363.331 1786.15 406.981C1776.21 443.891 1764.74 480.771 1752.06 516.641C1745.96 533.891 1747.41 552.991 1756.04 569.051C1778.49 610.841 1797.8 660.141 1811.88 711.621C1828.33 771.751 1835.35 830.571 1832.76 886.421C1829.49 956.691 1810.93 1022.37 1777.59 1081.61C1776.45 1083.64 1760.83 1111.21 1728.05 1147.82C1697.52 1181.91 1645.46 1230.87 1570.78 1270.54C1518.98 1298.06 1448.12 1321.34 1365.85 1337.87C1277.8 1355.56 1180.56 1365.17 1076.84 1366.43C1071.08 1366.49 1065.3 1366.53 1059.55 1366.53ZM442.023 34.9911C416.363 34.9911 395.243 41.0111 379.113 52.9411C332.883 87.1511 298.153 193.041 395.253 503.251C403.273 528.861 400.843 555.991 388.433 579.641C339.733 672.401 203.203 990.741 491.193 1192.47C536.623 1224.29 587.673 1249.32 642.933 1266.88C783.403 1311.5 929.223 1333.24 1076.41 1331.42C1271.97 1329.04 1450.64 1294.72 1554.35 1239.62C1624.01 1202.61 1672.64 1157.05 1701.17 1125.34C1732.21 1090.85 1746.88 1064.79 1747.03 1064.53C1802.91 965.241 1813.35 849.631 1778.12 720.831C1764.72 671.851 1746.43 625.091 1725.21 585.591C1711.93 560.861 1709.69 531.471 1719.06 504.951C1731.44 469.931 1742.64 433.901 1752.35 397.891C1763.78 355.471 1772.8 321.991 1777.54 285.791C1785.39 225.881 1801.73 101.231 1743.1 57.1311C1717.62 37.9711 1678.44 33.9211 1626.67 45.1111C1582.76 54.6011 1542.44 72.5611 1525.22 80.2311C1504.95 89.2611 1472.1 106.451 1443.46 123.001C1426.79 132.641 1410.16 142.841 1394.03 153.341C1369.56 169.261 1339.57 173.771 1311.73 165.691C1229.41 141.801 1144.21 130.061 1058.61 130.761C974.483 131.461 890.953 144.181 810.353 168.571C781.203 177.391 750.043 172.571 724.863 155.331C690.213 131.621 621.643 87.7311 551.743 60.1611C514.763 45.5811 481.773 37.2411 453.703 35.3911C449.713 35.1211 445.813 34.9911 442.023 34.9911Z" fill="black"/>
<path d="M451.523 342.431C418.753 226.151 389.863 35.7109 617.263 198.911C639.013 214.521 639.403 246.831 618.023 262.941C600.403 276.211 581.793 291.871 563.063 310.261C547.113 325.911 533.103 341.551 520.833 356.671C500.443 381.791 460.293 373.571 451.523 342.431Z" fill="#FCA2F3"/>
<path d="M489.913 388.971C486.043 388.971 482.133 388.581 478.233 387.771C457.193 383.431 440.503 367.871 434.673 347.181C421.633 300.901 414.093 260.811 412.283 228.021C409.563 178.981 420.093 145.771 443.583 129.301C461.923 116.441 486.693 114.661 517.203 124.021C547.423 133.291 583.493 153.141 627.463 184.691C642.413 195.421 651.103 212.131 651.313 230.551C651.523 248.961 643.223 265.861 628.543 276.921C609.883 290.971 591.973 306.391 575.313 322.751C560.903 336.891 547.143 352.021 534.413 367.701C523.343 381.341 506.993 388.971 489.913 388.971ZM468.363 337.691C470.673 345.881 477.003 351.791 485.313 353.501C493.653 355.231 501.853 352.291 507.243 345.651C520.803 328.951 535.453 312.841 550.803 297.781C568.553 280.361 587.623 263.941 607.493 248.971C613.183 244.681 616.403 238.121 616.323 230.961C616.243 223.791 612.863 217.301 607.063 213.131C566.793 184.231 533.113 165.511 506.943 157.481C487.283 151.451 472.733 151.611 463.683 157.951C451.133 166.751 445.283 190.951 447.233 226.081C448.903 256.321 456.013 293.871 468.363 337.691Z" fill="black"/>
<path d="M1668.26 350.222C1705.79 235.392 1742.48 46.2915 1508.56 200.012C1486.18 214.712 1484.46 246.982 1505.17 263.952C1522.23 277.942 1540.18 294.342 1558.14 313.492C1573.43 329.792 1586.78 345.992 1598.42 361.602C1617.76 387.532 1658.21 380.972 1668.26 350.222Z" fill="#FCA2F3"/>
<path d="M1630.34 395.191C1612.4 395.191 1595.38 386.791 1584.39 372.061C1572.31 355.861 1559.19 340.191 1545.38 325.471C1529.41 308.451 1512.15 292.301 1494.08 277.491C1479.87 265.841 1472.27 248.611 1473.24 230.231C1474.21 211.841 1483.58 195.491 1498.96 185.391C1544.19 155.671 1581.05 137.321 1611.63 129.301C1642.5 121.211 1667.17 124.001 1684.97 137.601C1707.76 155.021 1716.92 188.641 1712.19 237.531C1709.03 270.211 1699.85 309.961 1684.91 355.661C1678.23 376.101 1660.91 390.961 1639.71 394.431C1636.57 394.941 1633.44 395.191 1630.34 395.191ZM1643.47 159.741C1636.86 159.741 1629.19 160.881 1620.5 163.161C1594.03 170.101 1559.6 187.421 1518.18 214.641C1512.21 218.561 1508.57 224.921 1508.19 232.071C1507.81 239.221 1510.76 245.901 1516.27 250.421C1535.51 266.191 1553.89 283.381 1570.91 301.521C1585.62 317.201 1599.6 333.891 1612.46 351.141C1617.57 357.991 1625.64 361.261 1634.04 359.891C1642.41 358.521 1648.98 352.871 1651.63 344.791C1665.77 301.521 1674.42 264.291 1677.34 234.161C1680.73 199.141 1675.89 174.721 1663.71 165.411C1658.76 161.631 1651.99 159.741 1643.47 159.741Z" fill="black"/>
<path d="M1055.18 1162.11C1235.31 1162.11 1381.33 1067.89 1381.33 951.651C1381.33 835.418 1235.31 741.191 1055.18 741.191C875.056 741.191 729.033 835.418 729.033 951.651C729.033 1067.89 875.056 1162.11 1055.18 1162.11Z" fill="#864000"/>
<path d="M958.213 810.291C951.723 840.031 1007.36 892.231 1064.44 890.541C1117.4 888.981 1168.68 841.111 1162.48 812.061C1155.29 778.391 1071.93 774.911 1065.95 774.711C1030.49 773.521 964.563 781.171 958.213 810.291Z" fill="black"/>
<path d="M1060.48 893.851C1061.83 893.871 1063.18 893.861 1064.53 893.821C1102.85 892.691 1137.93 868.591 1154.3 846.681C1163.73 834.061 1167.73 821.511 1165.56 811.341C1157.92 775.541 1075.44 771.741 1066.06 771.431C1037.74 770.491 962.583 775.481 955.153 809.561C952.813 820.271 957.413 833.641 968.103 847.201C985.823 869.701 1021.9 893.351 1060.48 893.851ZM1061.27 777.881C1062.82 777.901 1064.34 777.941 1065.85 777.991C1095.86 779.001 1154.03 787.571 1159.42 812.781C1161.18 821.001 1157.6 831.611 1149.34 842.661C1133.84 863.391 1100.64 886.201 1064.36 887.271C1026.39 888.401 990.363 865.131 972.963 843.051C963.673 831.261 959.413 819.581 961.283 811.021C966.533 786.931 1021.38 777.361 1061.27 777.881Z" fill="black"/>
<path d="M1016 803.471C1016.24 807.571 1105.49 807.821 1105.75 803.751C1105.88 801.721 1083.98 797.121 1059.89 796.931C1037.4 796.941 1015.88 801.441 1016 803.471Z" fill="white"/>
<g opacity="0.5">
<path d="M334.803 125.381C334.803 125.381 362.123 22.9607 501.743 78.2307C587.253 112.081 666.003 162.161 714.183 195.891C744.173 216.881 782.353 222.461 817.093 210.921C906.033 181.371 1095.73 138.651 1320.41 208.401C1352.2 218.271 1386.76 213.151 1414.4 194.621C1510.44 130.241 1733.24 -2.11927 1776.67 123.191C1776.67 123.191 1779.88 -43.5593 1563.55 45.5807C1347.23 134.711 1388.93 163.181 1263.33 135.191C1137.73 107.201 909.953 110.191 771.973 154.811C771.973 154.801 374.873 -123.019 334.803 125.381Z" fill="white"/>
</g>
<path d="M1059.55 1366.53C914.503 1366.53 770.873 1344.25 632.333 1300.24C573.683 1281.61 519.443 1255 471.103 1221.14C399.283 1170.83 346.703 1109.99 314.813 1040.29C288.083 981.871 275.673 916.851 277.913 847.021C281.853 724.511 329.423 616.721 357.433 563.381C365.493 548.031 367.063 530.391 361.843 513.721C318.453 375.111 297.043 263.341 298.203 181.531C299.273 106.251 319.483 53.5211 358.283 24.8211C404.243 -9.17892 473.643 -8.24894 564.573 27.6111C634.013 54.9911 700.813 96.4811 744.623 126.461C761.003 137.671 781.273 140.811 800.213 135.081C884.013 109.721 970.853 96.4911 1058.32 95.7711C1147.34 95.0611 1235.89 107.251 1321.48 132.081C1339.53 137.321 1359.01 134.371 1374.94 124.011C1391.58 113.181 1408.74 102.651 1425.94 92.7111C1455.99 75.3411 1489.37 57.9011 1510.97 48.2711C1529.18 40.1611 1571.82 21.1611 1619.27 10.9111C1681.42 -2.51889 1730.16 3.62106 1764.13 29.1711C1797.22 54.0511 1816.01 97.6211 1819.99 158.671C1823.15 207.121 1816.58 257.211 1812.24 290.351C1807.19 328.861 1797.91 363.331 1786.15 406.981C1776.21 443.891 1764.74 480.771 1752.06 516.641C1745.96 533.891 1747.41 552.991 1756.04 569.051C1778.49 610.841 1797.8 660.141 1811.88 711.621C1828.33 771.751 1835.35 830.571 1832.76 886.421C1829.49 956.691 1810.93 1022.37 1777.59 1081.61C1776.45 1083.64 1760.83 1111.21 1728.05 1147.82C1697.52 1181.91 1645.46 1230.87 1570.78 1270.54C1518.98 1298.06 1448.12 1321.34 1365.85 1337.87C1277.8 1355.56 1180.56 1365.17 1076.84 1366.43C1071.08 1366.49 1065.3 1366.53 1059.55 1366.53ZM442.023 34.9911C416.363 34.9911 395.243 41.0111 379.113 52.9411C332.883 87.1511 298.153 193.041 395.253 503.251C403.273 528.861 400.843 555.991 388.433 579.641C339.733 672.401 203.203 990.741 491.193 1192.47C536.623 1224.29 587.673 1249.32 642.933 1266.88C783.403 1311.5 929.223 1333.24 1076.41 1331.42C1271.97 1329.04 1450.64 1294.72 1554.35 1239.62C1624.01 1202.61 1672.64 1157.05 1701.17 1125.34C1732.21 1090.85 1746.88 1064.79 1747.03 1064.53C1802.91 965.241 1813.35 849.631 1778.12 720.831C1764.72 671.851 1746.43 625.091 1725.21 585.591C1711.93 560.861 1709.69 531.471 1719.06 504.951C1731.44 469.931 1742.64 433.901 1752.35 397.891C1763.78 355.471 1772.8 321.991 1777.54 285.791C1785.39 225.881 1801.73 101.231 1743.1 57.1311C1717.62 37.9711 1678.44 33.9211 1626.67 45.1111C1582.76 54.6011 1542.44 72.5611 1525.22 80.2311C1504.95 89.2611 1472.1 106.451 1443.46 123.001C1426.79 132.641 1410.16 142.841 1394.03 153.341C1369.56 169.261 1339.57 173.771 1311.73 165.691C1229.41 141.801 1144.21 130.061 1058.61 130.761C974.483 131.461 890.953 144.181 810.353 168.571C781.203 177.391 750.043 172.571 724.863 155.331C690.213 131.621 621.643 87.7311 551.743 60.1611C514.763 45.5811 481.773 37.2411 453.703 35.3911C449.713 35.1211 445.813 34.9911 442.023 34.9911Z" fill="black"/>
<g opacity="0.25">
<path d="M1641.9 142.271C1641.9 142.271 1649.53 249.461 1607.6 360.871L1499.82 243.771L1491.29 212.001L1641.9 142.271Z" fill="black"/>
</g>
<g opacity="0.25">
<path d="M485.963 134.961C485.963 134.961 468.953 241.071 500.943 355.731L618.593 248.541L629.883 217.641L485.963 134.961Z" fill="black"/>
</g>
<g opacity="0.25">
<path d="M1807.43 771.331C1802.04 828.281 1786.01 912.321 1734.15 995.381C1560.77 1273.05 1156.76 1267.74 1053.15 1266.38C1007.68 1265.78 464.473 1252.21 333.153 928.381C309.153 869.201 304.333 813.301 304.943 771.331C304.943 771.331 170.063 1332.29 1051.11 1350.84C1932.15 1369.38 1807.43 771.331 1807.43 771.331Z" fill="black"/>
</g>
<path d="M695.153 637.381C698.833 642.571 702.473 647.471 706.303 652.041C710.143 656.611 714.143 660.841 718.293 664.771C726.583 672.621 735.543 679.171 744.903 684.451C763.663 694.991 784.133 700.411 804.643 700.381C825.143 700.391 845.603 694.961 864.353 684.411C873.713 679.121 882.663 672.591 890.963 664.741C895.113 660.821 899.133 656.591 902.973 652.031C906.813 647.461 910.463 642.571 914.153 637.391C914.193 643.761 913.273 650.131 911.693 656.401C910.113 662.671 907.853 668.851 904.943 674.771C899.133 686.621 890.833 697.531 880.683 706.601C870.553 715.711 858.563 722.981 845.583 727.901C832.603 732.841 818.613 735.401 804.643 735.371C790.673 735.371 776.693 732.801 763.713 727.861C750.733 722.931 738.753 715.661 728.623 706.561C718.473 697.491 710.173 686.591 704.373 674.741C701.473 668.811 699.203 662.641 697.623 656.381C696.043 650.111 695.123 643.741 695.153 637.381Z" fill="black"/>
<path d="M1208.15 637.381C1211.83 642.571 1215.47 647.471 1219.3 652.041C1223.14 656.611 1227.14 660.841 1231.29 664.771C1239.58 672.621 1248.54 679.171 1257.9 684.451C1276.66 694.991 1297.13 700.411 1317.64 700.381C1338.14 700.391 1358.6 694.961 1377.35 684.411C1386.71 679.121 1395.66 672.591 1403.96 664.741C1408.11 660.821 1412.13 656.591 1415.97 652.031C1419.81 647.461 1423.46 642.571 1427.15 637.391C1427.19 643.761 1426.27 650.131 1424.69 656.401C1423.11 662.671 1420.85 668.851 1417.94 674.771C1412.13 686.621 1403.83 697.531 1393.68 706.601C1383.55 715.711 1371.56 722.981 1358.58 727.901C1345.6 732.841 1331.61 735.401 1317.64 735.371C1303.67 735.371 1289.69 732.801 1276.71 727.861C1263.73 722.931 1251.75 715.661 1241.62 706.561C1231.47 697.491 1223.17 686.591 1217.37 674.741C1214.47 668.811 1212.2 662.641 1210.62 656.381C1209.04 650.111 1208.12 643.741 1208.15 637.381Z" fill="black"/>
<path d="M873.153 910.381C880.393 918.981 888.493 926.401 897.323 932.361C906.153 938.311 915.643 942.871 925.413 945.841C935.163 948.851 945.193 950.241 954.993 950.111C964.803 949.891 974.393 948.211 983.323 944.951C1001.21 938.491 1016.42 926.101 1026.75 910.611C1037.14 895.111 1042.45 876.611 1042.16 858.141L1077.08 859.181C1076.4 868.561 1077.21 878.021 1079.52 887.141C1080.67 891.701 1082.17 896.181 1084.05 900.501C1085.89 904.841 1088.13 909.021 1090.66 913.021C1095.72 921.021 1102.12 928.191 1109.52 934.191C1116.95 940.151 1125.41 944.891 1134.56 948.101C1143.7 951.311 1153.53 952.991 1163.57 953.011C1168.59 953.041 1173.65 952.581 1178.7 951.761C1183.75 950.961 1188.78 949.711 1193.72 948.051C1198.69 946.441 1203.54 944.361 1208.26 941.921C1213.01 939.511 1217.55 936.621 1221.97 933.441C1230.75 927.011 1238.69 919.061 1245.65 909.891C1238.79 931.911 1222.43 951.711 1200.9 963.871C1195.51 966.901 1189.82 969.471 1183.91 971.571C1177.99 973.631 1171.83 975.141 1165.55 976.141C1152.99 978.111 1139.86 977.721 1127.15 974.851C1114.44 972.021 1102.16 966.721 1091.24 959.341C1080.3 951.981 1070.76 942.551 1063.07 931.791C1059.23 926.411 1055.88 920.671 1053.01 914.701C1050.18 908.711 1047.83 902.481 1046.05 896.081C1042.5 883.281 1041.18 869.841 1042.2 856.601L1077.12 857.641C1077.27 870.541 1075.33 883.501 1071.33 895.771C1069.33 901.901 1066.85 907.881 1063.86 913.581C1060.9 919.301 1057.45 924.751 1053.57 929.871C1045.84 940.131 1036.38 949.041 1025.72 956.111C1015.05 963.151 1003.17 968.351 990.803 971.181C978.443 974.031 965.663 974.571 953.393 972.781C941.113 971.081 929.343 967.121 918.733 961.441C897.543 950.051 881.013 931.481 873.153 910.381Z" fill="black"/>
<g opacity="0.25">
<path d="M1540.15 1333.38C1436.61 1370.81 1270.38 1416.87 1062.15 1415.38C849.473 1413.85 680.913 1363.34 577.263 1323.44L621.863 1280.41C724.503 1314.29 881.953 1352.88 1076.15 1349.38C1246.06 1346.32 1385.15 1312.1 1481.15 1280.38L1540.15 1333.38Z" fill="black"/>
</g>
</svg>
